<?xml version="1.0" standalone="no"?>
<!DOCTYPE svg PUBLIC "-//W3C//DTD SVG 1.1//EN" "http://www.w3.org/Graphics/SVG/1.1/DTD/svg11.dtd" >
<svg xmlns="http://www.w3.org/2000/svg">
<metadata></metadata>
<defs>
<font id="palitoonregular" horiz-adv-x="1228" >
<font-face units-per-em="2048" ascent="1638" descent="-410" />
<missing-glyph horiz-adv-x="614" />
<glyph unicode="&#xfb01;" horiz-adv-x="835" d="M66 602v6q0 49 16 49l84 11q-5 62 -11.5 141.5t-10 122t-3.5 55.5q0 131 153.5 193t306.5 27.5t153 -138.5q0 -45 -17.5 -73t-42.5 -36.5t-50 -10.5t-42 1l-18 4q1 8 2 20t-2 44t-13 56.5t-37.5 44.5t-68.5 20q-39 0 -69.5 -15.5t-46.5 -39.5t-24 -47.5t-8 -43.5 q0 -93 11 -305l84 10q2 -1 12 1t21.5 -7t11.5 -28q0 -34 -24 -61.5t-83 -27.5h-16q4 -100 10.5 -232t10 -211t3.5 -93q0 -28 -35 -36.5t-70.5 6.5t-35.5 44q0 15 -43 522h-82h-7.5t-11.5 6.5t-7 20.5zM575 797q2 34 49.5 47t93.5 -1t44 -46q-2 -34 -4 -379t-4 -375 q-1 -17 -17.5 -28t-38.5 -13t-44 1.5t-36.5 16t-13.5 29.5q1 28 -15 368.5t-14 379.5z" />
<glyph unicode="&#xfb02;" horiz-adv-x="903" d="M66 602v6q0 49 16 49l84 11q-25 329 -25 356q0 75 38.5 131t100 84.5t131 39t138.5 3.5q6 -1 16 -4t36 -12.5t45.5 -20.5t35.5 -29.5t16 -39.5q0 -38 -13 -59t-32 -23.5t-37.5 0.5t-31.5 10l-13 6q-4 2 -12 32t-30 55.5t-64 25.5q-148 0 -148 -191q0 -132 11 -344l84 10 q2 -1 12 1t21.5 -7t11.5 -28q0 -35 -23.5 -62t-83.5 -27h-16q4 -100 10.5 -232t10 -211t3.5 -93q0 -28 -35 -36.5t-70.5 6.5t-35.5 44q0 15 -43 522h-82h-7.5t-11.5 6.5t-7 20.5zM571 950q0 34 43 52t86 8.5t43 -41.5q0 -23 6.5 -165.5t15.5 -339.5t13 -294q2 -31 14.5 -61 t24.5 -48t12 -22q0 -39 -43 -37q-50 3 -100 51q-7 7 -16.5 19.5t-21 38.5t-13.5 51q-7 83 -24 281.5t-28.5 340t-11.5 166.5z" />
<glyph horiz-adv-x="0" />
<glyph horiz-adv-x="682" />
<glyph unicode=" "  horiz-adv-x="614" />
<glyph unicode="&#x09;" horiz-adv-x="614" />
<glyph unicode="&#xa0;" horiz-adv-x="614" />
<glyph unicode="!" horiz-adv-x="335" d="M70 1182q0 34 45 51.5t90 8t45 -41.5q0 -35 -6 -447t-6 -440t-36 -36t-72 7t-36 44t-12 423t-12 431zM78 51q-4 16 2.5 42t28.5 49.5t55 23.5q31 0 53.5 -20.5t29.5 -41.5l7 -20q14 -26 3.5 -51t-44.5 -31q-34 -7 -82 11.5t-53 37.5z" />
<glyph unicode="&#x22;" horiz-adv-x="366" d="M61 1092q0 28 19.5 107.5t36.5 94.5q18 19 24 23t21 4q9 0 12.5 -10.5t2.5 -21.5l-1 -11q-6 -260 -43 -260q-26 0 -49 26t-23 48zM215 1090q-1 11 6.5 80t7.5 81q0 14 7.5 22.5t19.5 8.5q7 0 11 -10t5 -20v-11q29 -203 0 -205q-20 -1 -38.5 18t-18.5 36z" />
<glyph unicode="#" horiz-adv-x="1202" d="M61 539q0 13 7.5 22.5t18.5 14t22 6.5t19 3l7 1h209l57 274l-151 8q-1 1 -9.5 0t-21.5 0.5t-26 4t-22 9.5t-9 17q0 27 26 41t52 14h26h156l59 279q0 5 1 13.5t12.5 22t31.5 13.5q68 0 68 -74q0 -40 -49 -254h182l33 281q1 5 3.5 13.5t15.5 23.5t32 18q32 3 44 -12.5 t17 -56.5q3 -43 -24 -267h192q3 0 7.5 -0.5t17 -3.5t22.5 -7.5t19.5 -14t11.5 -21.5q6 -30 -8 -43.5t-53 -21.5q-20 -5 -223 2l-35 -258h112q6 -1 15.5 -3.5t28 -15.5t22.5 -32q6 -31 -8 -45t-54 -23q-25 -4 -131 2l-18 -131q0 -3 0.5 -8t-1.5 -18t-8 -23.5t-20.5 -19.5 t-36.5 -11q-34 -4 -43.5 28t-2.5 66l8 33l10 90q-175 9 -234 14q-5 -26 -17.5 -76.5t-17.5 -72.5q0 -3 -1.5 -8t-7.5 -18t-14.5 -22.5t-25.5 -17.5t-39 -8q-21 0 -30 13.5t-7 33t7.5 38.5t11.5 33l6 13l23 99l-220 16q-45 2 -45 27zM461 586h225l29 262q-134 4 -193 8z" />
<glyph unicode="$" horiz-adv-x="768" d="M76 795q0 79 67 135.5t168 81.5q-1 22 -2 43t-1.5 32t-0.5 17q0 34 37.5 51.5t75 8t37.5 -41.5v-98q83 -6 135.5 -44.5t52.5 -107.5q0 -52 -16 -84t-39 -41.5t-46 -12t-39 1.5l-16 5q1 4 3.5 11t6 28t4.5 39.5t-4 41.5t-17 39.5t-36.5 28t-60.5 11.5q-75 0 -114.5 -50.5 t-39.5 -103.5q0 -28 25.5 -56.5t66 -55t90 -56t98.5 -66t89.5 -77.5t66 -97.5t25.5 -119.5q0 -80 -66 -133t-167 -72l-2 -153q0 -28 -28.5 -36.5t-57.5 7t-29 45.5q0 7 -0.5 13t-1.5 13t-2 34.5t-2 70.5q-105 5 -176.5 51t-71.5 125q0 44 8 77t22.5 50.5t30 28t34 13t31.5 2 t26 -2.5l12 -2q-6 -84 -6 -145q0 -28 33.5 -60t99.5 -32q54 0 100.5 37.5t46.5 72.5q0 50 -25 91.5t-64.5 71t-87.5 57t-96 57t-87.5 63t-64.5 83t-25 110.5z" />
<glyph unicode="%" horiz-adv-x="995" d="M76 648v14q0 4 0.5 10t5 24.5t11 35t19.5 37t30.5 35t45.5 24.5t62 10q46 0 77 -18.5t42.5 -45t16.5 -53.5t3 -45l-2 -19q0 -5 -2 -14.5t-12.5 -32.5t-26.5 -41t-49 -32.5t-76 -14.5t-74 14.5t-44 35t-20 41t-7 35.5zM182 682q0 -76 27 -76q86 0 86 76q0 33 -13.5 48 t-27.5 14l-14 -1q-24 0 -41 -19.5t-17 -41.5zM201.5 83.5q7.5 -30.5 36.5 -30.5q27 0 50.5 10.5t33.5 20.5l10 10l448 780q2 4 4.5 10t7 21t4.5 27t-9 21.5t-27 9.5q-22 0 -38 -9.5t-21 -18.5l-5 -9l-485 -797q-17 -15 -9.5 -45.5zM606 314v8q0 7 1.5 19t11.5 42.5 t26.5 53.5t51.5 42t81 19q34 0 60 -10t40.5 -26t24 -35t12.5 -38.5t4 -35.5t0 -26l-1 -10l-2.5 -15t-12.5 -32.5t-27 -41.5t-49.5 -33t-76.5 -15q-31 0 -56 8t-40 20.5t-25.5 27.5t-14.5 30t-6 27.5t-2 20.5zM711 342q0 -78 28 -78q84 0 84 78q0 32 -13.5 47t-27.5 15 l-14 -1q-23 0 -40 -20t-17 -41z" />
<glyph unicode="&#x26;" horiz-adv-x="1173" d="M76 369q0 73 18 135t47 103.5t64 75t69.5 52t63.5 31t47 16.5l18 4q-50 0 -87 57t-37 120q0 119 116 190q98 60 216 55q114 -5 156 -69q19 -28 19 -64q0 -45 -17.5 -73t-42.5 -36.5t-50 -10.5t-42 2l-18 4q1 6 2 15t-1 33t-8.5 42.5t-24.5 33.5t-45 15q-67 0 -100 -35.5 t-33 -93.5q0 -51 14.5 -87.5t36.5 -52.5t40.5 -23t34.5 -7q15 0 19 -20t-3.5 -40t-19.5 -20q-52 0 -96 -22.5t-74 -59t-51.5 -83t-31 -93t-9.5 -90.5q0 -48 21.5 -99.5t58.5 -96.5t95 -74t124 -29q136 0 229 64t93 149q0 96 -27 146t-106 50q-39 0 -57.5 -27.5t-17 -62 t0.5 -67t-6 -41.5q-8 -8 -29 -15.5t-48.5 -8t-52.5 7.5t-42 35.5t-17 70.5q0 54 22 96t56 65t70 34.5t69 11.5l-2 2q9 0 24 0.5t54 4.5t68.5 11.5t53.5 22.5t24 36q0 31 -10 53.5t-14.5 26.5t5.5 21q11 10 41 14.5t64.5 0t61 -35.5t26.5 -84q0 -36 -19.5 -62t-52.5 -39 t-65 -19t-66 -7q90 -69 90 -227q0 -65 -19.5 -119.5t-53 -91.5t-75.5 -65t-90.5 -43.5t-93.5 -23t-88 -7.5q-60 0 -122.5 12t-129.5 43t-118.5 76.5t-85 120t-33.5 166.5z" />
<glyph unicode="'" horiz-adv-x="258" d="M74 1092q0 28 19 107.5t36 94.5q18 19 24 23t21 4q9 0 12.5 -10.5t2.5 -21.5l-1 -11q-6 -260 -43 -260q-26 0 -48.5 26t-22.5 48z" />
<glyph unicode="(" horiz-adv-x="686" d="M92 723q0 78 12.5 154t33.5 138.5t48.5 120.5t58 103t60.5 84.5t57.5 67t48.5 47.5t33 30l13 9q3 3 9.5 7t24.5 12.5t36 11.5t41 -3.5t42 -25.5q21 -21 24.5 -42.5t-6.5 -37t-23 -28t-25 -19.5l-11 -6q-7 -3 -18 -9.5t-44 -31.5t-63 -55.5t-66.5 -82.5t-63 -111.5 t-44.5 -144t-18 -178.5q0 -109 22.5 -207t57 -164.5t74 -125t74 -95t57 -66.5t22.5 -46q0 -35 -19.5 -53t-39.5 -16t-29 7q-1 1 -6 5q-19 15 -36.5 29t-58 54.5t-73.5 81.5t-73 107t-67 134t-46 159t-19 186z" />
<glyph unicode=")" horiz-adv-x="686" d="M63.5 1411.5q-3.5 -21.5 6.5 -37t23 -28t25 -18.5l11 -7q7 -3 18 -9.5t44 -31.5t63 -55t66.5 -82.5t63 -111.5t44.5 -143.5t18 -178.5t-17 -180t-44 -149t-60 -118t-65.5 -95.5t-59.5 -71.5t-44 -54.5t-17 -38.5q0 -34 20 -52t40 -16t30 7l25 21q25 20 56.5 51t72.5 77.5 t79 109t71 135.5t53 168t20 195t-20 195.5t-52 168t-71 137.5t-78 109.5t-71 77.5t-52 48l-20 16q-3 3 -9.5 7.5t-24.5 13t-35.5 11.5t-41 -3t-43.5 -25q-21 -21 -24.5 -42.5z" />
<glyph unicode="*" horiz-adv-x="827" d="M71.5 1081.5q4.5 23.5 14.5 44.5t26.5 32.5t32.5 4.5l197 -73q-15 184 -12 210q1 31 41.5 43.5t80 0.5t37.5 -41q-5 -101 -8 -211q146 64 197 77q17 5 34 -7.5t26.5 -34t14 -44.5t-2 -41.5t-23.5 -23.5q-137 -37 -203 -57q107 -120 135 -162q16 -26 -11 -60.5t-62.5 -45 t-55.5 11.5q-11 18 -53.5 81t-62.5 93q-87 -147 -113 -179q-12 -15 -33 -14.5t-41.5 12t-38 28.5t-22 35.5t5.5 33.5q32 37 129 163q-151 33 -205 52q-17 7 -23 27.5t-1.5 44z" />
<glyph unicode="+" horiz-adv-x="634" d="M78 485q-6 29 6.5 41.5t50.5 20.5q16 4 133 -4l13 114q1 9 3 22.5t13 35.5t27 22q17 0 25.5 -24t8.5 -48v-24v-106l119 -13q9 -1 22.5 -3.5t36.5 -13.5t23 -26q0 -18 -24.5 -27.5t-48.5 -9.5h-25h-101v-108l-2 -15q-6 -53 -41 -63q-28 -6 -41.5 7t-21.5 50q-3 27 4 129 h-102h-17q-55 12 -61 43z" />
<glyph unicode="," horiz-adv-x="337" d="M75 102l1 -14q0 -11 7 -18t17.5 -11t25.5 -13.5t26 -22.5q12 -13 16 -32.5t3 -35t4 -26.5t20 -11q19 0 38 40t28 80l9 40q-2 1 0.5 14.5t-3 35t-13 42t-29.5 35t-53 14.5q-32 0 -53.5 -13.5t-29.5 -32.5t-11.5 -38.5t-2.5 -32.5z" />
<glyph unicode="-" horiz-adv-x="587" d="M70 514.5q0 -7.5 2 -18.5q2 -9 7.5 -16t11 -11t15.5 -7t15 -4t16.5 -3t12.5 -2h18l225 14q5 -1 13 -1.5t29 0t37 3t29 11t13 22.5q0 16 -25 26.5t-50 13.5l-25 3q-9 1 -22.5 3t-55.5 7t-72 7t-70 4t-51 -3q-18 -4 -23.5 -5.5t-17.5 -5t-15 -6.5t-9 -7.5t-7 -10.5 t-1 -13.5z" />
<glyph unicode="." horiz-adv-x="327" d="M72 51q-6 29 16 72t68 43q31 0 53.5 -20.5t29.5 -41.5l7 -20q15 -26 4 -51t-45 -31q-33 -7 -80.5 11.5t-52.5 37.5z" />
<glyph unicode="/" horiz-adv-x="696" d="M82 -70.5q-1 22.5 2.5 45t9.5 38.5l6 16l408 1284q1 5 3 13t9.5 28.5t16 36t23 28.5t30.5 13q26 0 36 -35t6 -70l-3 -35l-346 -1292q-1 -5 -3.5 -13.5t-12.5 -30t-24 -38t-39.5 -30t-56.5 -13.5t-47.5 16t-17.5 38.5z" />
<glyph unicode="0" horiz-adv-x="1531" d="M61 649q0 121 35.5 243.5t101 227t151.5 186t194.5 128.5t222.5 47q142 0 273.5 -72.5t225 -189.5t149.5 -267.5t56 -302.5q0 -198 -95.5 -347.5t-254 -225.5t-354.5 -76q-146 0 -274.5 44.5t-224 126t-151 205.5t-55.5 273zM258 633q0 -81 30.5 -153t81.5 -124.5 t117.5 -91t140 -57.5t146.5 -19t144 18t134.5 54.5t112 87t77 121.5t28.5 152q0 135 -31.5 252t-84 198.5t-120.5 139.5t-141.5 86t-147.5 28q-87 0 -177.5 -69.5t-157.5 -173t-109.5 -225.5t-42.5 -224z" />
<glyph unicode="1" horiz-adv-x="610" d="M106 907q-16 -28 17 -61q20 -20 39 -28t32.5 -5.5t24 8t15.5 11.5l6 6l49 145q69 -910 69 -930q0 -15 4 -24.5t23 -19t53 -9.5q21 0 36 4t21.5 9t9.5 10.5t3 9.5v4l-57 1384q-1 0 0.5 5.5t-3.5 14t-12 16.5t-25 14t-44 6q-40 0 -65.5 -16.5t-31.5 -32.5l-6 -17z" />
<glyph unicode="2" horiz-adv-x="1175" d="M82 78q0 -37 22.5 -56t45 -21t22.5 1h827q4 1 10.5 2.5t22.5 8t28.5 15.5t23 26t10.5 38q0 33 -13 59t-26 36l-13 10l-698 -29q18 18 109 85t192.5 148t205 175.5t171.5 195.5t68 182q0 30 -2 58.5t-13.5 78t-31 90.5t-58 87.5t-91 78.5t-135 53t-184.5 21 q-80 0 -147.5 -18t-114.5 -48t-85.5 -69t-61.5 -82.5t-40 -87t-25 -82.5t-12 -69t-5 -48v-18q-1 -5 -1 -13t2 -28.5t8 -36t21.5 -28.5t39.5 -13q64 0 91 34t27 120q0 37 10 78.5t35 87.5t61.5 82.5t96.5 60t133 23.5q62 0 109.5 -9t78.5 -28t51.5 -42t31 -57t14.5 -68t4 -79 q0 -46 -17 -89t-41 -70.5t-48 -48.5t-41 -31l-17 -9l-459 -409q-8 -7 -21 -18t-46 -44t-58 -62t-46 -64.5t-21 -59.5z" />
<glyph unicode="3" d="M82.5 390q0.5 22 2 53.5t1.5 41.5q0 33 11 56.5t27 34t31.5 16t26.5 6.5h11q2 0 6 -0.5t14.5 -8.5t18 -23.5t14 -49.5t6.5 -82q0 -56 18.5 -101t48.5 -72t66 -46.5t72 -28t66 -13.5t49 -5h18h21t51 4.5t72.5 13.5t77 31t72.5 52t51 81t21 115q0 67 -18.5 118.5t-48 82 t-70.5 50.5t-81.5 27.5t-85 9.5t-77 -1t-62.5 -6t-36 -3q-45 0 -82 24t-37 64q0 26 11 49t23 32l11 10l492 331l-700 -14q-4 0 -11 1t-25.5 6.5t-32 14t-25 25t-11.5 37.5q0 29 12 49t29 29t34.5 13.5t29.5 4.5h12l850 8q29 0 46 -25.5t17 -58.5q0 -37 -16 -67.5t-32 -42.5 l-17 -12l-437 -318q84 0 155.5 -14.5t122 -39t92 -56.5t67 -67.5t44.5 -71t28.5 -67.5t14.5 -56.5t6 -38.5l1 -15q0 -6 0.5 -16.5t-2.5 -43t-9.5 -64.5t-24 -75t-42.5 -79.5t-67.5 -74.5t-96.5 -64.5t-133.5 -43t-173.5 -16.5q-86 0 -157.5 11t-122 28t-90.5 44.5t-65 54 t-42.5 62.5t-25 64t-11.5 66t-3.5 60z" />
<glyph unicode="4" horiz-adv-x="1105" d="M83.5 591.5q4.5 29.5 16.5 56.5l13 28q4 2 80 174t151 343l74 171q4 7 11 17t31 27t50 17q3 -1 9 -2.5t20.5 -8t25.5 -14.5t20 -22t9 -30q0 -25 -75 -199.5t-151 -336.5l-75 -161h416l32 649q0 121 131 121q33 0 49.5 -26t16.5 -52v-26l-51 -666h51q1 -1 9 0.5t21 -2.5 t25.5 -9.5t21.5 -21.5t9 -38q0 -27 -10.5 -44t-30.5 -23t-33.5 -7.5t-35.5 -1.5h-5h-35l-32 -432q0 -27 -18 -45t-36 -23l-18 -4q-24 0 -46.5 15t-33.5 29l-10 15l22 443l-524 -8q-31 -6 -86 49q-13 19 -8.5 48.5z" />
<glyph unicode="5" horiz-adv-x="1245" d="M82 416q0 72 22 155q1 2 2.5 4.5t8 9.5t14.5 10t21 6.5t28 -1.5q24 -5 36.5 -16t13.5 -19l1 -8q0 -22 -1 -60t-1 -57q0 -70 35 -124t93.5 -84.5t126 -46t139.5 -15.5q73 0 135 14.5t113 45t80.5 83t29.5 123.5q0 76 -20.5 146.5t-61.5 131.5t-112.5 99t-163.5 39l-420 6 q-60 22 -74 51q-9 18 -10 38t3 31l3 11l6 12q168 357 168 402q0 20 20 31.5t40 12.5l20 1h600q47 0 67.5 -14.5t20.5 -55.5q0 -26 -19.5 -40t-39.5 -18l-19 -3h-553l-108 -307l344 -19q97 0 180 -35t139.5 -92.5t96.5 -132.5t58.5 -155t18.5 -160q0 -76 -33 -143.5 t-88 -116.5t-125 -85t-145.5 -53.5t-148.5 -17.5t-148.5 17.5t-145.5 53.5t-125.5 85t-88.5 116.5t-33 143.5z" />
<glyph unicode="6" horiz-adv-x="1275" d="M82 633q0 86 28.5 175.5t74.5 164t101 144.5t110 123t101 93t75 61l28 21q4 3 11.5 8t29 15t40.5 15t41.5 2.5t37.5 -17.5q14 -14 14.5 -33t-9.5 -35.5t-22 -31t-22 -22.5l-10 -9q-14 -9 -38 -26t-89 -72.5t-119.5 -112.5t-111 -142t-81.5 -166q158 158 381 158 q97 0 183.5 -30t151 -82t111.5 -119t71 -144t24 -155q0 -76 -33 -143.5t-88.5 -116.5t-125.5 -85t-145.5 -53.5t-148.5 -17.5q-144 0 -286.5 67.5t-208.5 182.5q-3 4 -8 11.5t-18.5 38.5t-23.5 70.5t-18 109.5t-8 153zM274 428q0 -70 31 -123.5t84.5 -84t117 -45.5 t136.5 -15t137.5 15t118.5 45.5t85.5 84t31.5 123.5q0 75 -23 141t-67 118.5t-117 83t-166 30.5q-121 0 -206.5 -53.5t-124 -136t-38.5 -183.5z" />
<glyph unicode="7" horiz-adv-x="1032" d="M82 1241q0 -34 17.5 -54.5t34.5 -24.5l18 -3q3 -1 7 -2.5t15 -2t19 3.5t15 17t7 35t7.5 38t18 22.5t21 9.5t18.5 4h7h465q-68 -68 -122 -150.5t-86 -159.5t-55 -154t-32 -140.5t-13.5 -113.5t-3.5 -78v-27l-10 -381q0 -3 0.5 -8.5t6.5 -19.5t16 -24.5t32 -19t52 -8.5 q31 0 47 17.5t16 34.5v18q23 187 23 471q0 135 36 260.5t87 213.5t102 158.5t87 121.5t36 77q0 22 -16 32t-32 10l-16 -1q-655 8 -737 8q-36 0 -56.5 -18.5t-23.5 -37.5l-2 -19q-6 -29 -6 -105z" />
<glyph unicode="8" horiz-adv-x="1019" d="M82 236v30q0 17 4 49q20 253 207 422q-71 71 -96 145t-25 203q0 229 135 335q100 80 234 63q124 -16 201 -106q69 -79 69 -189q0 -52 -9 -95.5t-29.5 -82t-42 -67.5t-60 -62.5t-68 -56t-80.5 -58.5q17 -9 51 -26q53 -27 81 -41t76 -42.5t74 -50.5t60 -56.5t51.5 -68 t30 -78t12.5 -94.5q0 -69 -36 -126t-95.5 -94t-135.5 -60t-156 -28t-158 7t-140.5 39.5t-104 75.5t-48.5 110zM268 272q0 -12 2.5 -23t16 -29.5t36.5 -32t69.5 -23.5t109.5 -10q243 0 243 159q0 51 -20.5 96.5t-44.5 76t-77.5 68t-84.5 55.5t-101 56q-6 3 -9 5 q-140 -150 -140 -375v-23zM307 1073q0 -139 105 -244q10 7 43.5 30t43 30t36 27t35 29t27 27t25 31t16 31t12.5 36t3 38q0 50 -6 87.5t-23.5 76.5t-55.5 60.5t-95 21.5q-68 0 -117 -73t-49 -208z" />
<glyph unicode="9" horiz-adv-x="1257" d="M76 1042q0 75 33 142.5t88.5 116t126 84.5t146 53.5t148.5 17.5q144 0 286 -67.5t210 -182.5q3 -4 8 -11.5t18.5 -38.5t23.5 -70.5t18 -109.5t8 -153q0 -85 -28.5 -174.5t-74.5 -164t-101.5 -144.5t-111 -123t-101.5 -93.5t-75 -61.5l-28 -21q-4 -3 -11.5 -7.5t-29 -14.5 t-40.5 -15t-41 -2.5t-36 16.5q-22 28 -11 57.5t35 52.5l25 22q13 9 34.5 25t81 68t110 106.5t104 134.5t80.5 157q-147 -131 -353 -131q-97 0 -183.5 30t-151 82t-112 119.5t-71.5 144.5t-24 156zM254 1028q0 -75 23 -141t67.5 -118.5t117.5 -83t167 -30.5q91 0 161.5 30.5 t112 83.5t62 118.5t20.5 140.5q0 71 -29 124t-79.5 84.5t-113 46.5t-134.5 15q-73 0 -137.5 -15t-119 -46t-86.5 -85t-32 -124z" />
<glyph unicode=":" horiz-adv-x="327" d="M70 55q-5 28 17.5 70.5t68.5 42.5q31 0 53.5 -20.5t29.5 -41.5l7 -20q15 -26 4 -51t-45 -31q-34 -7 -82 11.5t-53 39.5zM70 426q-4 30 18 72.5t68 42.5q31 0 53.5 -21t29.5 -42l7 -21q15 -26 4 -51t-45 -31q-35 -6 -82.5 12.5t-52.5 38.5z" />
<glyph unicode=";" horiz-adv-x="342" d="M62 102l1 -14q0 -11 7 -18t17.5 -11t25.5 -13.5t26 -22.5q12 -13 16 -32.5t3 -35t4 -26.5t20 -11q19 0 38 40t28 80l10 40q-2 1 0.5 14.5t-3 35t-13 42t-29.5 35t-53 14.5q-32 0 -53.5 -13.5t-29.5 -32.5t-12 -38.5t-3 -32.5zM78 457q-6 29 16 70.5t68 41.5 q32 0 55 -20.5t30 -40.5l7 -21q14 -26 3.5 -50.5t-44.5 -30.5q-35 -6 -82.5 12.5t-52.5 38.5z" />
<glyph unicode="&#x3c;" horiz-adv-x="856" d="M76 752q0 16 9 35.5t17 31.5l9 12l561 646q4 5 11.5 10.5t30 5t44.5 -22.5q14 -14 19.5 -28.5t3 -25.5t-7 -20t-9.5 -14l-4 -4l-533 -641l486 -676q2 -2 6 -5t11.5 -13t11 -20t0 -24.5t-16.5 -27.5q-20 -21 -44 -23t-38 6l-14 9l-527 707q-26 43 -26 82z" />
<glyph unicode="=" horiz-adv-x="624" d="M80 567q2 -7 7 -13t10 -9t14 -5t13.5 -2.5t14.5 -1.5t11 -1h16l266 22q1 1 11 0t26 1.5t31 6t25.5 12t9.5 21.5q-2 13 -25 20t-46 8l-22 1q-10 1 -28 2t-64.5 3.5t-85 3.5t-76 0t-51.5 -5q-42 -13 -53.5 -24t-3.5 -40zM94 385q2 -6 6 -11.5t9.5 -8.5t10.5 -5.5t12.5 -3.5 t11.5 -2t11.5 -1.5t8.5 -0.5h16l266 23h11t25 2t32 6t25 12.5t10 20.5q-1 13 -23.5 20t-44.5 8h-22q-10 1 -28 2t-64.5 3.5t-85 4t-77 0.5t-52.5 -5q-43 -13 -54.5 -24t-3.5 -40z" />
<glyph unicode="&#x3e;" horiz-adv-x="856" d="M75.5 1448q-0.5 -23 10.5 -35l10 -12l533 -641l-486 -676q-2 -2 -6 -5t-11.5 -13t-11 -20t0 -24.5t16.5 -27.5q21 -21 45 -23t38 7l13 8l529 706q24 43 24 82q0 16 -9 36t-17 32l-9 12l-559 645q-4 5 -12 10.5t-31 5.5t-45 -22t-22.5 -45z" />
<glyph unicode="?" horiz-adv-x="827" d="M82 889q0 193 131 293q106 80 247 70q137 -11 224 -101q82 -86 82 -215q0 -47 -15 -84.5t-39.5 -64t-53.5 -54t-58 -63.5t-53.5 -82.5t-39.5 -121.5t-15 -171q0 -29 -47 -39t-93.5 3.5t-46.5 41.5q0 74 17 138t44 109t59.5 85t65.5 74t60 67t44 72.5t17 83.5q0 3 1 28 t0 39.5t-4.5 41t-14 43.5t-27.5 35t-46 27t-68 9q-53 0 -88 -19t-49.5 -49t-19.5 -66.5t1 -73t12.5 -66.5t13.5 -49l7 -19q-5 -2 -14 -4.5t-35 -8t-49 -7.5t-52 0.5t-49.5 12t-34.5 31t-14 54.5zM307 51q-4 16 2.5 42t28.5 49.5t55 23.5q31 0 53.5 -20.5t29.5 -41.5l7 -20 q14 -26 3.5 -51t-44.5 -31q-34 -7 -82 11.5t-53 37.5z" />
<glyph unicode="@" horiz-adv-x="1169" d="M76 353v5q0 16 3 42.5t16.5 76t35 97t63 99.5t96 91t140 64.5t188.5 25.5q81 0 148.5 -17t114 -45.5t83.5 -65.5t59 -78t37.5 -82t21.5 -78t9.5 -65.5t2.5 -45.5v-17q0 -6 -1 -17.5t-7.5 -43t-17.5 -60.5t-33 -64.5t-51.5 -61t-77 -43t-105.5 -17.5q-34 0 -58 7t-36 17.5 t-18 23.5t-5.5 26.5t2.5 24t5 17.5l3 7q-4 -4 -11 -10t-28.5 -22.5t-44 -29t-54 -22.5t-60.5 -10q-79 0 -122.5 47t-43.5 176q0 132 75 187t207 55q38 0 82.5 -31t44.5 -80q0 3 1 8.5t5.5 20t10.5 25t17.5 19.5t25.5 9q30 0 41.5 -10t11.5 -35q0 -15 -14 -69t-28 -101 l-13 -47q-1 -3 -1.5 -8.5t-1 -19.5t1.5 -24.5t10 -19t21 -8.5q34 0 66.5 81t32.5 159q0 35 -7.5 72t-30.5 81.5t-58.5 79t-97.5 57.5t-142 23q-85 0 -158.5 -36t-121 -92.5t-74.5 -123.5t-27 -131q0 -86 17 -157t43.5 -117t64.5 -81t73.5 -53.5t77 -29.5t69.5 -14t56 -3 q111 0 121 -10q14 -21 -25 -32q-30 -9 -90 -9q-112 0 -201.5 26t-145 63t-95.5 92.5t-58 100t-28.5 101t-11 79.5t-0.5 51zM453 328q0 -46 9.5 -78.5t23.5 -45.5t28 -20t24 -6h9q3 0 8.5 -0.5t20.5 1.5t29 6t31 14.5t29 26t20.5 41.5t8.5 59q0 45 -11 77.5t-27 46.5 t-32 21.5t-27 7.5h-11q-3 0 -7.5 0.5t-18.5 -1.5t-26.5 -6t-28 -15t-26.5 -26.5t-18.5 -42t-7.5 -60.5z" />
<glyph unicode="A" horiz-adv-x="751" d="M49 47q0 24 108.5 526.5t108.5 532.5q0 32 58 46q26 6 47 6q26 0 45 -9q45 -14 45 -45q0 -30 107.5 -532.5t107.5 -526.5q0 -25 -30 -37q-19 -8 -38 -8q-12 0 -22 3q-30 7 -29.5 30t-71.5 329h-221q-71 -298 -71 -327q0 -24 -36 -31q-13 -2 -25 -2l-47 8q-36 13 -36 37z M289 463h172l-86 364q-13 -57 -86 -364z" />
<glyph unicode="B" horiz-adv-x="763" d="M63 1128q0 22 24.5 36t57.5 16v2q9 0 25 -1t61.5 -6.5t87 -16.5t92 -35.5t87 -57.5t61.5 -87.5t25 -121.5q0 -133 -105 -207q223 -63 223 -313q0 -89 -29 -154.5t-75 -100t-102 -55.5q-54 -20 -110 -24q-39 -2 -74 -2h-28q-46 2 -75 7l-29 5q-18 5 -30.5 16t-12.5 25 q0 25 -37 535t-37 540zM215 1034l14 -358q29 -1 60.5 -3t62 7t55 25.5t39.5 53t15 89.5q0 50 -18.5 86.5t-44.5 55t-62.5 29.5t-63.5 13q-19 2 -40 2h-17zM236 553q2 -67 8.5 -225t7.5 -212q33 1 66 5.5t78.5 19.5t79 38.5t57.5 67t24 101.5q0 45 -14.5 81t-36.5 57.5 t-53.5 36.5t-60.5 21q-28 8 -62 10q-28 2 -47 2h-7q-20 0 -40 -3z" />
<glyph unicode="C" horiz-adv-x="854" d="M72 602q0 163 53.5 301.5t145 218.5t200.5 80q102 0 187 -74.5t85 -136.5q0 -28 -34 -62t-60 -34q-10 0 -25.5 26.5t-31.5 57.5t-49 57.5t-74 26.5q-104 0 -167.5 -117.5t-63.5 -320.5q0 -221 61 -343t180 -122q46 0 80 18t52 43.5t30.5 51t23 43.5t21.5 18 q41 0 79 -16.5t38 -51.5q0 -22 -24.5 -64.5t-66 -88t-107 -79.5t-134.5 -34q-109 0 -200.5 80t-145 219t-53.5 303z" />
<glyph unicode="D" horiz-adv-x="878" d="M61 1122q1 27 35 42q26 11 52 11q9 0 18 -1q31 -3 66.5 -9.5t103 -28t127 -51.5t127 -86t115.5 -126.5t80 -177.5t32 -234q0 -104 -31.5 -185t-79 -129t-113.5 -80.5t-122.5 -45.5t-120.5 -17q-48 -3 -76 -4h-16q-30 2 -53 4q-27 0 -48.5 12.5t-21.5 32.5q0 25 -37 534 t-37 539zM215 999q4 -120 18 -437.5t17 -405.5q30 -4 60 -6q8 0 17 -1q24 0 55 3q42 4 78.5 15.5t73.5 36.5t63.5 62t43 96.5t16.5 135.5q0 86 -18 158.5t-46.5 122t-68.5 88.5t-79.5 61.5t-85 38.5t-78.5 22.5t-66 9.5z" />
<glyph unicode="E" horiz-adv-x="804" d="M51 1118q0 22 20.5 35t51.5 16q4 2 14 2h13q45 0 230 4q159 4 221 4q25 0 34 -1q28 -2 40 -40q7 -21 7 -41q0 -17 -5 -34q-10 -37 -36 -35q-79 4 -438 14q2 -45 6.5 -172.5t7.5 -199.5q85 -2 260 -11q24 -2 29.5 -31.5t-9 -58t-38.5 -26.5q-1 0 -236 -6l17 -390 q129 -8 462 -25q23 -2 28 -31q1 -8 1 -15q-1 -22 -11 -44q-14 -28 -38 -26q-26 1 -62 1q-27 -1 -60 -1q-77 -2 -197 -4t-158 -2q-6 -1 -11 -1q-24 1 -44 11q-26 12 -25 35q0 25 -37 534t-37 539z" />
<glyph unicode="F" horiz-adv-x="755" d="M55 1118q0 22 21.5 35t52.5 16q4 2 12 2h13q46 0 231 4q159 4 222 4q25 0 34 -1q28 -2 40 -40q6 -20 6 -40q-1 -17 -5 -35q-10 -37 -37 -35q-82 4 -436 14q1 -65 14 -372q279 -12 314 -15q26 -2 32 -31.5t-10.5 -58t-44.5 -26.5q-12 1 -40 1q-36 0 -96 -2q-78 -2 -120 -1 h-29q19 -471 19 -504q0 -23 -29 -30q-10 -3 -21 -3q-20 0 -38 8q-30 12 -29 37q0 25 -38 534t-38 539z" />
<glyph unicode="G" horiz-adv-x="854" d="M53 602q0 163 54 301.5t146.5 218.5t201.5 80q101 0 186.5 -74.5t85.5 -136.5q0 -28 -34 -62t-60 -34q-10 0 -25.5 26.5t-31.5 57.5t-49 57.5t-74 26.5q-105 0 -168.5 -117.5t-63.5 -320.5q0 -221 61 -343t179 -122q168 0 186 252l-133 -17q-2 2 -12 0t-21.5 8.5 t-11.5 32.5q0 43 23 76t83 33h181h7.5t11.5 -8.5t7 -24.5v-18q4 -12 4 -19q0 -233 -89 -354t-242 -121q-109 0 -201.5 80t-146.5 219t-54 303z" />
<glyph unicode="H" horiz-adv-x="737" d="M74 1118q0 28 37 43q25 10 50 10q13 -1 25 -3q38 -8 37 -33q0 -11 2.5 -70t6.5 -167.5t8 -197.5h280l-28 418q0 28 37 43q25 10 50 10q13 -1 25 -3q38 -8 37 -33q0 -29 21.5 -554t21.5 -548t-29 -30q-10 -3 -21 -3q-20 0 -38 8q-30 12 -29 37q0 11 -5.5 86t-16 212.5 t-17.5 240.5h-284q22 -480 22 -551q0 -23 -30 -30q-11 -3 -21 -3q-19 0 -39 8q-30 12 -29 37q0 25 -36.5 534t-36.5 539z" />
<glyph unicode="I" horiz-adv-x="555" d="M80 1181q10 31 33 31h4q28 -2 159 -7t158 -7q23 -1 28 -31t-10 -59.5t-40 -28.5q-6 1 -16 1t-25 -0.5t-25 -0.5q3 -107 18.5 -477.5t18.5 -472.5q69 -4 86 -6q23 -1 29 -31l2 -16q0 -22 -11 -43q-15 -29 -40 -27q-7 1 -23 1q-36 1 -117 -3q-70 -3 -110 -3q-26 0 -39 1 q-30 1 -42 36q-7 19 -6 38q0 16 4 31q10 34 38 32q24 -2 108 -6l-67 942h-72q-29 1 -41 37q-6 19 -6 37q-1 16 4 32z" />
<glyph unicode="J" horiz-adv-x="651" d="M51 207q0 24 47 36q30 8 60 8q16 0 33 -3q47 -6 47 -27q2 -1 0 -12.5t3.5 -29.5t13.5 -35t28 -28.5t49 -9.5q37 1 52 22t15 46q-8 121 -32 457t-29 418q-41 -2 -100 -2q-16 0 -27.5 14t-14.5 34.5t-1.5 40.5t12 34t26.5 14q14 0 151 -7.5t159 -7.5q24 0 29 -29 q2 -8 2 -16q0 -21 -10 -42q-15 -29 -40 -29h-39q3 -81 11.5 -299t16 -397t7.5 -181q0 -16 -3 -34t-11.5 -42t-28.5 -46t-49 -36q-38 -18 -94 -18q-139 0 -211 60t-72 147z" />
<glyph unicode="K" horiz-adv-x="919" d="M113 1118q-1 28 37 43q25 10 50 10q12 -1 25 -3q37 -8 37 -33q0 -9 1.5 -54t5 -132.5t5.5 -160.5q46 50 128 139.5t136.5 149t65.5 70.5q22 23 92 24h4q65 0 66 -28q0 -17 -406 -477q182 -203 366.5 -415t184.5 -220q-2 -28 -64 -28q-3 1 -7 1q-68 2 -90 23 q-13 13 -97 103.5t-199.5 215.5t-168.5 182q20 -488 20 -495q1 -23 -29 -30q-11 -3 -22 -3q-19 0 -38 8q-30 12 -30 37t-36.5 534t-36.5 539z" />
<glyph unicode="L" horiz-adv-x="614" d="M61 1118q-1 28 37 43q24 10 50 10l26 -3q38 -8 37 -33q0 -20 7.5 -204t17.5 -430t14 -356q46 -3 148 -12t120 -10q23 -2 28 -32q1 -8 1 -15q-1 -22 -11 -44q-14 -28 -38 -26h-15q-35 0 -123 -2q-113 -4 -145 -4q-6 -1 -11 -1q-24 1 -44 11q-26 12 -25 35q0 25 -37 534 t-37 539z" />
<glyph unicode="M" horiz-adv-x="1032" d="M111 586q48 526 51 553q4 22 30 30q12 4 24 4q15 1 29 -5q27 -10 31 -31q12 -19 242 -473q209 408 244 462q-2 15 8 26q12 11 28 15q15 4 30 4q2 -1 4 -1q18 0 30.5 -8.5t14.5 -22.5q3 -27 50 -552.5t50 -549.5v-5q0 -23 -34 -30q-13 -3 -26 -3q-32 0 -61 16 q-27 14 -29 36q-10 69 -53 879q-212 -447 -225 -471q-13 -25 -29 -25q-7 0 -15 6t-12 12l-4 7q-20 36 -225 469q-52 -871 -53 -875q-3 -33 -56 -47q-22 -6 -40 -5q-25 0 -42 11q-12 8 -12 21q0 2 50 553z" />
<glyph unicode="N" horiz-adv-x="931" d="M49 1124q-1 26 31 41q26 12 55 12q7 -1 13 -1q36 -4 47 -23q13 -18 104.5 -183t218 -395t166.5 -303q61 804 61 854q0 24 29.5 37t58.5 6t29 -30q0 -24 -21.5 -549t-21.5 -553q0 -24 -30 -33q-15 -5 -32 -5q-16 1 -33 5q-35 8 -48 29l-4 4q-457 787 -461 794 q5 -124 13 -326.5t13 -327t5 -138.5q0 -24 -30 -31t-59.5 6t-29.5 37q0 25 -37 534t-37 539z" />
<glyph unicode="O" horiz-adv-x="935" d="M55 539q0 168 54 326.5t149.5 260t204.5 101.5t204 -101.5t149 -260t54 -326.5q0 -248 -116 -393.5t-291 -145.5q-85 0 -159 37t-129.5 104.5t-87.5 170.5t-32 227zM219 524q0 -164 76.5 -266t171.5 -102q93 0 165.5 97.5t72.5 260.5q0 271 -77.5 427.5t-174.5 156.5 q-56 0 -111.5 -96t-89 -229.5t-33.5 -248.5z" />
<glyph unicode="P" horiz-adv-x="649" d="M47 1135q0 23 25 37t59 16q9 0 25.5 -1t63 -7t89 -17t94 -35.5t89 -58.5t63 -89t25.5 -124q0 -75 -24 -132t-60 -89t-86.5 -52t-94 -26.5t-92.5 -7.5q4 -103 9.5 -239t8.5 -208t3 -82q0 -24 -30 -30q-10 -2 -20 -3q-20 0 -40 9q-30 13 -31 37q0 25 -38 548t-38 554z M203 1038l16 -366q29 -1 61 -3h11l51 7q32 9 57 25.5t40.5 54.5t15.5 92q0 50 -19 87t-45.5 56.5t-63.5 31t-65 13.5q-20 2 -42 2h-17z" />
<glyph unicode="Q" horiz-adv-x="935" d="M49 526q0 168 54.5 326.5t150.5 260t205 101.5t204 -101.5t149 -260t54 -326.5q0 -178 -54 -303t-155 -186l-8 -2q-9 0 -13.5 4t-4.5 8v4l-8 137q0 23 5.5 40t11.5 22l5 6l2 4q32 43 42.5 96t10.5 146q0 139 -23 253.5t-59.5 184.5t-80.5 107.5t-88 37.5 q-56 0 -112 -95.5t-90 -229.5t-34 -248q0 -94 29 -170q78 68 159 68q51 0 86 -14t55 -36t31 -62t14 -78.5t3 -98.5q0 -44 6.5 -78t16 -50.5t18.5 -27t15 -12.5l7 -2q2 0 5.5 -0.5t9.5 -7.5t6 -21q0 -8 -6 -18t-18.5 -18t-29.5 -9h-2q-17 0 -40 12q-26 13 -54 41 q-23 23 -30 80q-4 42 -4 81v31q1 8 1 17q0 43 -11 79q-12 42 -46 42q-73 0 -102 -59q37 -37 84 -49l2 -2q3 0 7.5 -2t12.5 -11.5t8 -25.5v-107q0 -1 -0.5 -3t-8 -5.5t-23.5 -3.5h-6q-157 21 -258 163.5t-101 370.5z" />
<glyph unicode="R" horiz-adv-x="890" d="M59 1116q0 23 25 37t57 14v2q12 0 31.5 -0.5t77 -6.5t110 -16.5t116 -34.5t109.5 -57t77.5 -87t31.5 -121q0 -175 -157 -250q73 -58 119 -159t46 -204q0 -83 33.5 -120t65.5 -37q14 0 21.5 -8t7.5 -16l1 -9q-6 -35 -6 -66q0 -15 -15.5 -22t-30.5 -7l-15 1q-7 1 -19 3 t-42.5 18.5t-53.5 42t-42 79.5t-19 125q0 73 -29.5 135.5t-72.5 100t-87.5 58.5t-79.5 21q-65 0 -88 -2q4 -100 9.5 -226.5t8.5 -194.5t3 -78q0 -24 -30 -31t-59.5 6t-29.5 37q0 25 -37 534t-37 539zM211 1022q10 -222 14 -356q29 -2 49 -3h19q15 1 34 1q32 2 54.5 7.5 t48 17.5t41.5 31t26.5 49t10.5 69q0 51 -23 88t-55 55.5t-76 28.5t-76 12q-20 1 -40 0h-27z" />
<glyph unicode="S" horiz-adv-x="862" d="M74 881q0 -73 31 -132t81 -99.5t110 -76t120.5 -69t110.5 -69t81 -85.5t31 -110q0 -131 -201 -131q-34 0 -64 11.5t-47.5 27.5t-30 32t-17.5 28l-5 11l-4 174q0 5 -18.5 7.5t-45.5 -5t-54 -26t-45.5 -64t-18.5 -110.5q0 -86 75 -142.5t181 -66.5q36 -3 72 -3q71 0 142 13 q107 19 182 84.5t75 157.5q0 67 -25 122t-66 92t-93.5 71t-107.5 59t-107.5 55t-93.5 60.5t-66 75t-25 97.5q0 56 16 96t42.5 59.5t53 27.5t56.5 8q61 0 102.5 -25t58 -61t24 -72t6.5 -61l-2 -25q7 -3 18.5 -5.5t40.5 -1.5t51.5 13t41 50.5t18.5 99.5q0 112 -117 165 q-74 34 -165 34q-46 0 -97 -9q-157 -27 -241 -119q-64 -71 -64 -163z" />
<glyph unicode="T" horiz-adv-x="745" d="M76 1138q9 33 35 33h2q28 -1 276 -1t273 -1q23 -1 29 -31q2 -9 2 -17q0 -21 -10 -41q-14 -28 -38 -27q-52 0 -184 -6q4 -96 14.5 -353.5t18.5 -450t8 -210.5q0 -23 -30 -30q-11 -3 -21 -3q-19 0 -39 8q-30 12 -29 37q0 19 -13.5 210.5t-32 440t-24.5 344.5 q-138 -6 -178 -6h-14q-28 2 -41 36q-8 20 -8 39q0 15 4 29z" />
<glyph unicode="U" horiz-adv-x="813" d="M66 326l4 782q-1 3 -1.5 7t2 15t8.5 19t22 15t40 7q31 0 45.5 -21.5t14.5 -70.5l24 -764q0 -6 1 -15.5t11.5 -34.5t29 -44.5t58.5 -35t95 -15.5q45 0 80 14.5t53 35.5t29 41.5t14 34.5l2 15l10 781q0 45 17 62t53 17q27 0 42 -15.5t16 -31.5l1 -16q17 -719 17 -782 q0 -18 -1.5 -38t-9.5 -53.5t-21.5 -63t-39.5 -62t-61 -55.5t-89.5 -38.5t-121.5 -15.5t-121.5 15.5t-89.5 38.5t-61 55.5t-39.5 62t-21.5 63t-9.5 53.5t-1.5 38z" />
<glyph unicode="V" horiz-adv-x="731" d="M61 1110q-1 24 29 36q19 8 39 9q11 0 21 -3q30 -7 30 -30q0 -29 176 -764q23 98 74 311t76.5 325t25.5 126q0 23 29 30q10 3 21 3q20 -1 38 -9q30 -12 29.5 -36t-108 -526.5t-107.5 -532.5q0 -11 -24 -30t-56 -19q-22 0 -41.5 11.5t-28 23t-8.5 16.5q0 31 -107.5 533 t-107.5 526z" />
<glyph unicode="W" horiz-adv-x="1034" d="M57 1139q-1 25 33 31q12 3 26 2q25 0 50 -10q39 -14 43 -42q3 -19 11.5 -163.5t22 -380t19.5 -334.5q32 68 90 191.5t92 195t41 84.5q15 24 29 24q7 0 15.5 -6t12.5 -12l5 -6q6 -11 223 -469q52 869 53 874q5 34 59 47q22 6 39 6q25 0 42 -12q12 -8 12 -20v-4 q-4 -32 -51.5 -557t-49.5 -545q-3 -22 -30 -30q-12 -4 -25 -4q-15 -1 -29 5q-28 10 -32 31q-4 6 -240 473q-241 -458 -244 -463q3 -25 -25 -37q-18 -8 -37 -8q-11 0 -21 3q-30 7 -33 30q-2 19 -50 545z" />
<glyph unicode="X" horiz-adv-x="854" d="M72 1124q0 23 23 35t57 12q10 0 17 -1t11.5 -4t6.5 -4.5t6 -8t6 -8.5q31 -39 235 -387q200 355 230 393q2 3 6.5 9.5t7.5 9t11 5t20 3.5q82 0 82 -46q0 -57 -269 -526q281 -495 281 -557q0 -41 -33 -41h-6q-16 0 -24 4.5t-31 26.5q-15 16 -96.5 143t-174.5 279 q-231 -395 -262 -426q-21 -23 -30 -29t-23 -6h-6q-32 0 -35 41q0 66 268 563q-281 468 -278 520z" />
<glyph unicode="Y" horiz-adv-x="841" d="M61 1149q0 23 23.5 35t56.5 12q10 0 17 -1t11.5 -4t6.5 -5t6 -8l6 -9q20 -23 238 -387q202 362 227 394q2 3 5.5 8.5t5.5 7.5t6.5 5t11 4t16.5 1q35 0 58.5 -11t23.5 -34q1 -11 -14.5 -44t-47.5 -88l-64 -110t-81 -137.5t-84 -142.5q2 -70 8.5 -215.5t11.5 -257.5t5 -129 q0 -23 -30 -30q-11 -3 -21 -3q-20 0 -39 8q-29 13 -29 37q0 18 -9 133t-20 257.5t-14 207.5q-33 55 -84 138t-81.5 134t-62.5 105.5t-47.5 86t-15.5 42.5z" />
<glyph unicode="Z" horiz-adv-x="862" d="M64 1049q-5 16 -5 32q0 19 7 37q12 34 38 35h652q22 0 33 -15.5t8 -35.5v-2q0 -21 -108 -209t-252 -434t-195 -342q486 24 510 24q28 -1 42 -35q8 -21 8 -42q0 -13 -4 -27q-8 -35 -34 -35l-594 2q-10 -2 -21 -2q-21 0 -45 7q-34 10 -34 26q3 29 212 407.5t339 599.5 q-67 -3 -193.5 -10t-216 -11.5t-109.5 -4.5q-28 0 -38 35z" />
<glyph unicode="[" horiz-adv-x="559" d="M68 1427q0 37 9.5 64.5t22.5 40.5t26 20t22 8l10 1h198h13.5t30.5 -2.5t39 -7.5t30.5 -16t13.5 -26q0 -25 -27 -42.5t-54 -22.5l-27 -4l-137 -4v-1399h112q1 -1 13.5 0t32 -1.5t38 -6.5t32 -15t13.5 -26q0 -25 -27 -42.5t-54 -22.5l-27 -5q-115 -8 -185 -8 q-20 0 -34 13.5t-20.5 32t-10 37.5t-3.5 33l-1 13q-49 1255 -49 1388z" />
<glyph unicode="\" horiz-adv-x="692" d="M60 1393.5q-1 -22.5 2.5 -45t9.5 -38.5l6 -16l407 -1282q1 -5 3 -13t9.5 -29t16 -37t23 -29t30.5 -13q25 0 35 35t7 70l-3 35l-346 1292q-1 5 -3.5 13.5t-12.5 30t-23.5 38t-39 30t-56.5 13.5t-47.5 -16t-17.5 -38.5z" />
<glyph unicode="]" horiz-adv-x="559" d="M70 1497q0 -24 27 -41.5t54 -23.5l27 -5l137 -4v-1396h-114h-13.5t-30.5 -2.5t-39 -7.5t-30.5 -16t-13.5 -26q0 -24 27 -41.5t54 -22.5l27 -5q113 -8 183 -8q32 0 49.5 32.5t19.5 65.5l2 33q49 1253 49 1386q0 38 -9.5 65.5t-22.5 40.5t-26 19.5t-22.5 7.5t-9.5 0h-198 q-1 -1 -13 0t-31.5 -1.5t-38 -7t-31.5 -15.5t-13 -27z" />
<glyph unicode="^" d="M401 1242.5q-8 17.5 2 37.5q17 17 43 42.5t79.5 68.5t76.5 43h4h2q23 0 72.5 -38.5t87.5 -77.5l39 -38q10 -20 2 -37.5t-33 -23.5q-16 -3 -68 24t-102 60q-54 -34 -105 -60.5t-67 -23.5q-25 6 -33 23.5z" />
<glyph unicode="_" horiz-adv-x="798" d="M82 -47q0 -10 11 -16.5t23 -7.5l11 -1q10 -1 27.5 -3t72 -8t99.5 -10.5t111 -11t106 -9t84.5 -5t46.5 1.5q39 8 53 22.5t8 45.5q-5 22 -30 39q-26 13 -52 10h-497h-8t-18 -2.5t-22.5 -7t-17.5 -14t-8 -23.5z" />
<glyph unicode="`" d="M458 1480.5q9 20.5 36 24.5q30 6 144 -24t118 -47q4 -25 -14 -60t-56 -35q-25 0 -81.5 24.5t-100.5 49.5l-43 25q-12 22 -3 42.5z" />
<glyph unicode="a" horiz-adv-x="739" d="M66 225q0 45 10 83.5t27 65t41 48t49 34.5t55 22t55 13t53 5.5t45 1.5t34 -1t18 -1q0 28 -2.5 60t-9.5 77.5t-25.5 74.5t-44.5 29q-34 0 -57 -12.5t-31.5 -30.5t-12.5 -36.5t-3 -31.5l1 -12q-7 -2 -18 -4t-40 -3t-51.5 4.5t-40.5 24t-18 50.5q0 87 98 130q61 26 131 26 q39 0 81 -8q123 -24 171 -105q23 -40 23 -88l12 -346q16 -143 41 -168q5 -5 5 -12q0 -10 -8 -26q-14 -27 -36 -48l-20 -21q-2 -2 -6 -5t-18 -7q-10 -3 -20 -3l-8 1q-14 2 -32 15.5t-35 39.5q-61 -42 -133 -55q-31 -6 -61 -6q-38 0 -73 10q-62 17 -104 73t-42 142zM227 240 q0 -17 1 -28.5t7 -32.5t18 -34t36.5 -23.5t58.5 -10.5q38 0 67 11.5t39 22.5l9 11l-14 252q-222 0 -222 -168z" />
<glyph unicode="b" horiz-adv-x="739" d="M61 1171q-1 34 45 52q29 12 59 12q16 0 32 -4q45 -10 45 -43q0 -10 20 -486q83 66 174 66q75 0 133 -78t75 -190q10 -64 10 -129q0 -47 -6 -95q-12 -112 -81 -190t-180 -78q-42 0 -94 45v-14q0 -29 -35 -37q-13 -3 -25 -3q-21 0 -45 10q-36 15 -36 44q0 30 -45.5 555.5 t-45.5 562.5zM268 598q4 -98 12.5 -264t10.5 -215q23 -8 49 -8q19 0 39 9.5t42.5 32.5t37 73t14.5 120q0 277 -147 277q-37 0 -58 -25z" />
<glyph unicode="c" horiz-adv-x="659" d="M70 424q0 175 82.5 299.5t199.5 124.5q71 0 132 -53t61 -97q0 -20 -31 -50t-49 -30q-7 0 -16 17.5t-18 39t-30.5 39t-50.5 17.5q-54 0 -91.5 -85.5t-37.5 -205.5t40.5 -207.5t96.5 -87.5q39 0 64.5 16t33.5 35.5t16 35.5t17 16q27 0 62 -17.5t35 -42.5q0 -16 -17.5 -46 t-46.5 -62.5t-75 -56t-95 -23.5q-117 0 -199.5 124.5t-82.5 299.5z" />
<glyph unicode="d" horiz-adv-x="673" d="M66 270q-5 46 -6 93q0 65 10 131q18 112 76 190t133 78q55 0 110 -25q-35 418 -35 434q0 34 45 52q29 12 58 12q17 0 33 -4q46 -10 45 -43q0 -35 26.5 -578t26.5 -571q0 -29 -36 -37q-13 -3 -26 -3l-46 10q-36 15 -36 44v15q-66 -66 -118 -66q-110 0 -179 78t-81 190z M240 340q0 -70 14.5 -120t37.5 -73.5t43 -33t38 -9.5q32 0 67 17l-41 495h-10q-149 0 -149 -276z" />
<glyph unicode="e" horiz-adv-x="724" d="M55 426q0 175 83 299.5t200 124.5q60 0 110 -10t95 -33.5t70.5 -69t25.5 -110.5q0 -46 -10.5 -84.5t-28.5 -66t-43.5 -49t-51.5 -34.5t-57.5 -22.5t-58 -13.5t-55.5 -5.5t-46.5 -1.5t-35.5 1t-19 1q0 -111 32.5 -171t78.5 -60q43 0 72.5 15.5t41.5 38t18 44.5t6 37l-1 16 q6 2 15.5 4t33.5 3t42.5 -4t33.5 -23.5t15 -50.5q1 -106 -79 -158q-66 -43 -151 -43q-18 0 -37 2h-16q-117 0 -200 123.5t-83 300.5zM233 442q146 0 201 36t55 134q0 15 -0.5 23t-3 26.5t-10.5 29.5t-20.5 24t-35 19.5t-52.5 6.5q-38 0 -66 -31t-40.5 -74.5t-19.5 -87.5 t-7 -75z" />
<glyph unicode="f" horiz-adv-x="561" d="M84 602v6q0 49 16 49l84 11q-24 316 -24 319q0 102 121 165q90 47 179 47q31 0 62 -6q121 -22 121 -124q0 -45 -17.5 -73t-43 -36.5t-51 -10.5t-43.5 1l-17 4q1 6 2 16.5t1 37.5t-4 47.5t-18 37.5t-36 17q-28 0 -46.5 -10.5t-26 -30.5t-9.5 -36t-2 -40q0 -35 14 -305 l84 10q2 -1 12 1t21.5 -7t11.5 -28q0 -35 -23 -62t-83 -27h-17q4 -102 10.5 -232.5t10.5 -210t4 -93.5q0 -28 -35 -37q-13 -3 -26 -3q-23 0 -45 10q-35 15 -35 44q0 15 -43 522h-82h-7.5t-12 6.5t-7.5 20.5z" />
<glyph unicode="g" horiz-adv-x="796" d="M0 -168q0 56 20 100.5t52.5 74t79.5 49.5t96 30t106 14l-16 37q-112 9 -184 90t-72 215q0 97 37.5 189t104 151.5t141.5 59.5q67 0 124 -45q50 132 123 151q11 3 21 3q29 0 47 -27q14 -19 14 -38q0 -12 -7 -24q-8 -17 -28 -22q-70 -19 -122 -88q51 -59 80.5 -141.5 t29.5 -168.5q0 -126 -64.5 -205.5t-166.5 -97.5q3 -31 12 -51l25 -61q-74 0 -129 -19t-81 -45.5t-41 -53.5t-18 -46l-2 -19v-16.5t6.5 -37.5t20.5 -47t46.5 -37t78.5 -17q49 0 85 24t58.5 58.5t43.5 69.5t53 59t75 24q67 0 83 -35q4 -8 4 -14q0 -15 -18 -26q-15 -9 -38 -9 q-33 0 -57.5 -16.5t-40.5 -42.5t-30 -57.5t-31 -62.5t-39 -57t-59.5 -42.5t-86.5 -16.5q-7 -1 -19 -1q-2 -1 -5 -1q-13 0 -42 3q-35 2 -66.5 9.5t-70.5 27.5t-67 50t-47 81.5t-19 117.5zM240 467q0 -78 36.5 -135.5t83.5 -57.5t83 57.5t36 135.5q0 84 -37.5 170t-81.5 86 t-82 -86t-38 -170z" />
<glyph unicode="h" horiz-adv-x="716" d="M53 1171q0 34 45 52q29 12 58 12l32 -4q45 -10 45 -43q0 -60 21 -457q67 115 174 115h18t41 -5.5t54.5 -16.5t48.5 -36t33 -61q4 -24 4 -43l-17 -637q-1 -5 -3 -12.5t-14.5 -20t-31.5 -12.5q-44 0 -60 20.5t-16 61.5l-10 438q0 56 -8 92.5t-23 51.5t-27 19.5t-30 4.5 q-83 0 -127 -90q25 -558 25 -561q1 -29 -35 -37q-13 -3 -26 -3l-46 10q-36 15 -35 44q0 30 -45 555.5t-45 562.5z" />
<glyph unicode="i" horiz-adv-x="339" d="M70 1026q0 -31 28.5 -52.5t69.5 -21.5q40 0 69 21.5t29 52.5q0 29 -29 50.5t-69 21.5q-41 0 -69.5 -21.5t-28.5 -50.5zM74 797q2 33 49 46q23 6 46 6q24 -1 47 -7q44 -13 44 -42l-4 -382q-2 -344 -4 -375q-1 -17 -17.5 -28.5t-38.5 -13.5q-7 -1 -15 -1l-29 3 q-22 4 -36.5 16.5t-13.5 29.5v11q0 57 -14 359.5t-14 365.5v12z" />
<glyph unicode="j" horiz-adv-x="387" d="M-118 -208l1 15q0 2 -0.5 4.5t1 10t5.5 12.5t15 9t28 3q27 -1 41 -10.5t15 -19.5v-9q2 -3 -0.5 -17.5t12.5 -32.5t45 -19q35 -2 54.5 19.5t22.5 40.5t1 32v4v12q0 69 -13.5 463t-13.5 468v14q2 33 48 48q25 8 51 8q19 0 39 -5q42 -11 42 -40l-1 -101q0 -124 2 -399 q2 -344 2 -443v-39q-5 -91 -61 -134q-49 -39 -147 -39q-14 0 -28 1q-50 3 -84.5 20.5t-49 40t-21.5 45t-6 38.5zM88 1028q0 29 29 50.5t69 21.5q41 0 70 -21.5t29 -50.5q0 -31 -29 -52.5t-70 -21.5q-40 0 -69 21.5t-29 52.5z" />
<glyph unicode="k" horiz-adv-x="741" d="M57 1171q-1 34 45 52q29 12 59 12q16 0 32 -4q45 -10 45 -43q0 -7 20 -479q70 139 191 139q1 -1 11 0.5t28 -2.5t39 -7.5t42 -16t38.5 -28.5t28.5 -43.5t11 -62.5q0 -119 -246 -186q30 -5 59 -17t65.5 -43.5t63.5 -78t45.5 -127.5t18.5 -185l1 -7q0 -3 -2 -9 q-2 -8 -6.5 -14.5t-16 -11.5t-29.5 -5q-52 0 -95.5 17.5t-43.5 50.5q1 8 2.5 21t2.5 51v17q0 29 -2 57q-4 35 -16 78t-32.5 74t-58 53t-87.5 23q19 -397 19 -407q1 -29 -35 -37q-13 -3 -26 -3l-46 10q-36 15 -35 44q0 30 -45 555.5t-45 562.5zM270 539q120 0 192 68 q39 38 39 71q0 6 -1 13q-7 34 -58 34q-42 0 -75 -19t-50.5 -46.5t-29 -55t-14.5 -46.5z" />
<glyph unicode="l" horiz-adv-x="374" d="M59 1171q-1 34 45 52q29 12 59 12q16 0 32 -4q45 -10 45 -43q0 -35 25.5 -578t25.5 -571q1 -29 -35 -37q-13 -3 -26 -3q-23 0 -45 10q-35 15 -35 44q0 30 -45.5 555.5t-45.5 562.5z" />
<glyph unicode="m" horiz-adv-x="1050" d="M59 774q1 21 18 35t41.5 18t48.5 1.5t40.5 -15.5t15.5 -33q0 -2 1 -25t1 -42q73 131 185 131h18t41.5 -5.5t55 -16.5t48.5 -36t33 -61q0 -2 1 -8.5t1 -9.5q67 106 166 106h17.5t40 -5t53 -15.5t47 -34.5t31.5 -58q4 -24 4 -43l-17 -612q0 -5 -2 -12.5t-14 -20t-31 -12.5 q-41 0 -56.5 20t-15.5 58l-10 424q0 54 -8 89t-22.5 49.5t-26.5 19t-29 4.5q-87 0 -129 -101l-12 -516q-1 -5 -3 -13t-15 -21t-33 -13q-42 0 -58 21t-16 61l-10 438q0 56 -8 92.5t-23.5 51.5t-27.5 19.5t-29 4.5q-56 0 -89.5 -35t-50.5 -80q25 -518 25 -534q0 -29 -38 -37 q-12 -2 -24 -2q-26 0 -52 11q-38 16 -36 46q0 30 -23.5 354.5t-23.5 362.5z" />
<glyph unicode="n" horiz-adv-x="694" d="M70 774q1 34 42 49q22 8 45 8q19 1 37 -5q40 -12 39 -44q-1 -4 1 -27t2 -42q73 131 184 131h18t41.5 -5.5t55 -16.5t48.5 -36t33 -61q5 -30 5 -41l-19 -637q0 -5 -2 -13t-14.5 -21t-32.5 -13q-42 0 -58 21t-16 61l-10 438q0 56 -8 92.5t-23.5 51.5t-27.5 19.5t-29 4.5 q-96 0 -139 -115q24 -497 24 -534q0 -29 -38 -37q-12 -2 -24 -2q-25 0 -51 11q-37 16 -36 46q0 30 -23.5 354.5t-23.5 362.5z" />
<glyph unicode="o" horiz-adv-x="700" d="M70 373q0 116 37.5 225.5t103.5 179.5t141 70t141 -70t103 -179.5t37 -225.5q0 -172 -80 -272.5t-201 -100.5t-201.5 100.5t-80.5 272.5zM211 375q0 -94 44 -152.5t99 -58.5q53 0 94 56t41 149q0 155 -44 245.5t-99 90.5q-32 0 -64.5 -55t-51.5 -132t-19 -143z" />
<glyph unicode="p" horiz-adv-x="722" d="M63 793q0 34 45 51q30 12 59 12q16 0 32 -4q45 -9 45 -41v-29q80 68 176 68q75 0 133 -78.5t75 -189.5q11 -66 11 -131q0 -46 -5 -93q-13 -111 -82 -189.5t-179 -78.5q-45 0 -99 47q4 -95 9.5 -215.5t8.5 -185t3 -76.5q0 -28 -35 -36q-12 -4 -25 -4q-23 0 -45 10 q-36 16 -36 46q0 29 -45.5 554.5t-45.5 562.5zM248 678l22 -475q25 -10 56 -10q18 0 37.5 9.5t42 32.5t37 73t14.5 120q0 277 -148 277q-34 0 -61 -27z" />
<glyph unicode="q" horiz-adv-x="708" d="M70 360q-5 48 -5 95q0 64 10 129q17 111 75 189.5t133 78.5q74 0 143 -43q18 23 60 31q18 4 35 4q21 0 41 -6q34 -10 34 -37q0 -36 26.5 -579.5t26.5 -571.5t-35 -36q-13 -4 -26 -4q-23 0 -46 10q-36 15 -36 44q0 71 -41 510q-74 -82 -133 -82q-111 0 -180 78.5 t-82 189.5zM246 430q0 -70 14.5 -120t37 -73t42.5 -32.5t39 -9.5q48 0 82 26q-8 106 -22 273.5t-17 207.5q-20 5 -29 5q-147 0 -147 -277z" />
<glyph unicode="r" horiz-adv-x="647" d="M120 833q23 9 47 9q17 0 35 -6q40 -12 40 -43v-2q0 -25 2 -50q18 44 59 73t87 34l28 2q32 0 62 -9q44 -12 73 -50t29 -93q0 -45 -17.5 -73.5t-42.5 -37t-50 -10t-42 2.5l-18 4q1 6 2 16.5t0.5 37.5t-5 47t-19 37t-36.5 17q-39 0 -67 -44.5t-37 -94.5q3 -86 9.5 -223.5 t10.5 -230.5t4 -111q0 -28 -38 -36q-12 -3 -26 -3l-50 11q-38 16 -37 46v3q0 41 -22.5 358.5t-22.5 363.5q-1 39 42 55z" />
<glyph unicode="s" horiz-adv-x="681" d="M80 647q0 -53 19.5 -96t50.5 -72.5t68.5 -55t75 -49.5t68.5 -50t50.5 -62t19.5 -80q0 -35 -21 -65.5t-67 -30.5q-39 0 -59 20t-21 40v20q1 8 2 21t3.5 41t2 46.5t-3.5 18.5l-10 1q-10 2 -22 3t-28.5 -0.5t-32 -5.5t-31.5 -14.5t-27.5 -26.5t-19 -42.5t-7.5 -60.5 q0 -62 54 -103q54 -42 132 -48q25 -2 51 -2l105 10q78 14 132 61t54 113q0 55 -21 104.5t-54 85.5t-73.5 67.5t-81 57.5t-73.5 49.5t-54 48.5t-21 50q0 117 110 117q22 0 36 -16t18 -39t5 -46t-1 -39l-2 -16q7 -2 18.5 -4t41 -1.5t52.5 9t41.5 36.5t18.5 73q0 103 -124 129 q-38 8 -76 7l-174 -41q-124 -60 -124 -163z" />
<glyph unicode="t" horiz-adv-x="612" d="M57 795q0 13 8.5 22t16.5 12.5t8 1.5h60q-7 123 -7 138q2 35 43 51q22 8 43 9q19 -1 37 -7q40 -14 39 -47l4 -152l111 -4q18 0 18 -55q0 -14 -6.5 -21t-13.5 -7l-6 -1h-101q3 -79 11 -286t10 -289q4 -31 22 -54.5t54 -23.5q30 1 44.5 18.5t13.5 34.5l-1 17v3.5t3 9 t8.5 11t17 8.5t28.5 4q26 1 38 -8.5t10 -19.5l-1 -10q0 -3 0.5 -8.5t-1.5 -21.5t-7 -30.5t-16.5 -32.5t-28 -31t-45.5 -22t-65 -10h-14q-108 0 -158 43q-52 46 -54 139h2q-1 36 -5.5 126t-11.5 222t-11 207h-68q-18 -1 -23.5 15t-5.5 49z" />
<glyph unicode="u" horiz-adv-x="643" d="M63 229l3 570q0 2 -0.5 5t1.5 10.5t7 13.5t16.5 11t28.5 5q46 0 64 -15t18 -51l18 -555q0 -3 0.5 -8.5t5 -20t14 -25t30.5 -19.5t50 -9q30 0 51 7t30 17.5t13.5 21t4.5 17.5v7l8 567q0 36 18.5 51t63.5 15q27 0 40.5 -11t13.5 -23l-1 -11l2 -570q0 -21 -2.5 -42.5 t-17 -58.5t-39 -64t-74.5 -48t-117 -22q-67 1 -117 22t-74.5 48t-39 64t-17 58.5t-2.5 42.5z" />
<glyph unicode="v" horiz-adv-x="782" d="M70 762q-1 6 -1 11q0 28 40 38q18 5 35 5q32 0 63 -16q29 -14 35 -38q12 -59 60 -260.5t85 -333.5q37 137 145 594q9 37 68 49q20 4 37 4q32 0 53 -15q16 -12 16 -29q0 -4 -1 -9q-8 -38 -121.5 -368t-120.5 -359q-3 -19 -27 -33q-10 -13 -38 -13q-7 0 -15 1q-35 0 -47 12 q-22 14 -27 33q-7 29 -119 359t-120 368z" />
<glyph unicode="w" horiz-adv-x="1046" d="M72 797q-1 6 -1 11q0 28 36 38q15 4 29 4q28 0 55 -16q25 -14 30 -37q40 -187 137 -574q74 292 88 348q22 45 76 45q29 0 48 -10t24 -20l4 -11l88 -352q97 387 137 574q9 38 60 49q17 4 31 4q28 0 46 -16q12 -11 12 -27q0 -5 -1 -10q-8 -40 -115 -381.5t-113 -366.5 q-5 -23 -13 -33.5t-25 -13.5q-6 -2 -19 -2q-14 0 -18 2q-47 7 -56 47t-90 287q-81 -247 -90 -287t-55 -47q-4 -2 -19 -2q-12 0 -18 2q-32 5 -41 47q-6 25 -112.5 366.5t-114.5 381.5z" />
<glyph unicode="x" horiz-adv-x="780" d="M39 809q-1 32 55 35h13q45 0 63 -19q30 -34 186 -278q167 256 191 280q12 13 44 19q12 2 24 3q19 0 35 -6q27 -9 26 -30q0 -38 -240 -393q207 -327 207 -379q-1 -31 -33 -39l-12 -2q-26 0 -49 25q-34 42 -195 276q-182 -264 -196 -278q-24 -25 -50 -25q-6 0 -12 1 q-33 7 -33 40q0 44 211 381q-235 346 -235 389z" />
<glyph unicode="y" horiz-adv-x="741" d="M-70 -327q-3 11 -3 22q0 18 9 33q12 24 28.5 43.5t31.5 28.5l16 10q3 -5 9.5 -12.5t24.5 -24t36 -25t42 -4.5t44 27q28 32 46.5 66t26.5 54t28 86.5t32 102.5q-7 31 -126.5 360t-127.5 367q-1 5 -1 10q0 29 41 39q17 4 34 4q32 0 63 -15q29 -14 35 -38q4 -19 26.5 -104.5 t55 -210t53.5 -209.5q20 73 56.5 205t59 213t26.5 100q9 38 68 50q19 4 35 4q33 0 54 -16q16 -11 16 -29q0 -4 -1 -9q-7 -32 -69.5 -216t-120.5 -351.5t-60 -170.5q-29 -94 -60.5 -172.5t-67.5 -145.5t-74.5 -110.5t-78.5 -64.5q-28 -15 -57 -15q-13 0 -26 3q-43 9 -85 51 q-32 32 -39 64z" />
<glyph unicode="z" horiz-adv-x="724" d="M205 314q130 241 229 409q-212 -25 -272 -25q-34 0 -51 32q-11 20 -11 39q0 13 4 25q10 32 43 31l431 2q19 0 29.5 -12.5t10.5 -28.5q0 -15 -6 -24q-24 -61 -180 -325t-192 -339q40 3 127.5 11.5t145.5 13t81 4.5q34 -1 50 -33q10 -20 10 -38q0 -13 -4 -26 q-11 -32 -44 -32l-440 2h-27q-2 2 -8 2q-26 5 -43 15q-16 9 -16 21q0 29 133 276z" />
<glyph unicode="{" horiz-adv-x="692" d="M72 677q-1 -7 1 -24t9.5 -30t28 -24t51.5 -11q29 0 50 -17.5t32.5 -52.5t19 -71.5t9 -91.5t2 -93.5t-1 -97.5t-1.5 -84q0 -51 19 -90t46.5 -60.5t65 -35t67.5 -17.5t60 -4q38 0 59.5 14.5t24.5 28.5l2 14q-1 1 0.5 9t-3 20.5t-11.5 25t-26 21t-46 8.5q-71 0 -93.5 73.5 t-22.5 289.5q0 57 -9.5 105t-25 78.5t-34 53.5t-37 35t-34 19.5t-24.5 9.5l-10 2q38 0 67 14.5t47 37t29 58t15.5 70t5.5 80.5t-0.5 82t-3 82.5t-1.5 73.5q0 52 12 92.5t29.5 61t34.5 33.5t29 16l12 3q4 1 11 2t25.5 6.5t32 12.5t25 20.5t11.5 30.5q0 27 -2 39.5t-11.5 28 t-32.5 21t-63 5.5q-51 0 -94 -15.5t-69.5 -40.5t-47.5 -55t-31 -60t-16.5 -55t-7.5 -40l-2 -16l12 -412q0 -3 -1 -8t-7.5 -18t-16 -22.5t-30 -17.5t-47.5 -8q-26 0 -44 -9.5t-25 -23.5t-10 -28t-2 -23l1 -10q-1 -4 -2 -11z" />
<glyph unicode="|" horiz-adv-x="393" d="M103 1041l1 -23l52 -1319q0 -4 1.5 -11.5t6.5 -26.5t12 -33t20 -26t29 -12q25 0 38 32t13 64v31v1399q8 0 10.5 31t-18.5 62.5t-71 31.5q-31 0 -52 -23t-29 -55.5t-11 -65.5t-2 -56z" />
<glyph unicode="}" horiz-adv-x="692" d="M72 1470q0 28 2 40t11 27.5t32 21.5t63 6q51 0 94 -15.5t70 -40.5t47.5 -55t31 -59.5t17 -54.5t8.5 -40l1 -16l-13 -414q0 -3 1 -8t7.5 -17.5t16 -22t30 -17.5t46.5 -8q27 0 45 -10t25 -23.5t10 -27.5t2 -24l-1 -10q1 -4 2 -10.5t-1 -23.5t-9.5 -30t-28 -23.5 t-51.5 -10.5q-29 0 -50.5 -17.5t-33 -52.5t-18.5 -71.5t-9 -91.5t-2 -94t1.5 -97t1.5 -84q0 -52 -19 -91t-46.5 -60.5t-65 -34.5t-67 -17t-60.5 -4q-38 0 -59.5 14.5t-24.5 28.5l-2 15q1 1 -0.5 8.5t3 20t11.5 24.5t26 20.5t46 8.5q71 0 94 74t23 288q0 58 9.5 106t25 78.5 t34 54t37 35.5t34 19.5t25.5 9.5l9 2q-38 0 -67 14.5t-47 37t-29.5 58t-16 70t-5.5 81t0.5 81.5t3 82t1.5 74q0 38 -6.5 69.5t-17 52t-22.5 36.5t-24.5 24.5t-23 14t-17.5 7.5l-6 1q-4 1 -11 2t-25 6.5t-32 13t-25 20.5t-11 29z" />
<glyph unicode="~" horiz-adv-x="602" d="M75 484.5q-4 -31.5 9 -40.5q24 -17 47 -16.5t37 16.5q7 8 13 30t13 38t19 16q25 0 74 -34q3 -1 16 -7.5l18 -9t17.5 -8t21 -7.5t21 -5.5t25 -4.5t26.5 -1q38 0 61.5 26t28.5 59.5t2 64t-12 40.5q-15 21 -38.5 21t-41.5 -21q-10 -11 -16.5 -31t-13 -32.5t-19.5 -12.5 q-18 0 -74 31q-24 14 -39 21.5t-40.5 13.5t-55.5 6q-27 0 -50.5 -26.5t-34 -60.5t-14.5 -65.5z" />
<glyph unicode="&#xa1;" horiz-adv-x="331" d="M74 -360q0 36 11 447t11 439t36 36t71.5 -7.5t34.5 -44.5q0 -29 8 -423t8 -431q-1 -34 -46.5 -51t-90 -7t-43.5 42zM78 808q11 24 45 30t82 -13.5t53 -38.5q4 -30 -18 -72t-68 -42q-32 1 -54.5 22t-29.5 42l-6 20q-15 28 -4 52z" />
<glyph unicode="&#xa2;" horiz-adv-x="935" d="M143 537q0 122 82 222.5t217 119.5l2 49q0 4 1 11t4 24t7.5 30t12.5 24t18 11q22 0 31 -31t8 -61l-2 -31v-26q92 -11 165 -80t73 -125q0 -26 -30.5 -38.5t-61.5 -12.5q-9 0 -20 15t-24.5 36.5t-30.5 42.5t-45 36t-61 15q-105 0 -149.5 -52t-44.5 -194q0 -36 5 -67 t18.5 -62.5t34.5 -53.5t56 -36t80 -14q38 0 67 10.5t45 26.5t27.5 34.5t17.5 34.5t13.5 26.5t16.5 10.5q41 0 79 -16t38 -51q0 -19 -19.5 -51.5t-52.5 -67.5t-86.5 -63.5t-112.5 -35.5l-4 -26q0 -4 -1 -11t-4 -24.5t-7.5 -30.5t-12.5 -24t-18 -11q-22 0 -30.5 30t-6.5 60 l2 31v6q-92 11 -161.5 71.5t-102.5 143.5t-33 175z" />
<glyph unicode="&#xa3;" horiz-adv-x="952" d="M76.5 507q-3.5 -23 5 -46t24.5 -23h175q6 -44 6 -88q0 -48 -28 -107.5t-51.5 -91.5t-43.5 -53q-12 -11 -15 -35t1.5 -43.5t13.5 -19.5h686q17 0 23.5 39t0 78t-23.5 39l-549 -35v2q58 39 100 108.5t43 143.5q0 17 -4 63q267 0 275 8q9 8 3.5 54.5t-22.5 46.5h-276 q-14 65 -14 119q0 111 52 156.5t163 45.5q42 0 70 -3.5t37.5 -7.5t18.5 -7.5t17 -3.5q29 0 50.5 28t21.5 68q0 34 -70.5 66t-144.5 32q-178 0 -278.5 -72t-100.5 -223q0 -18 5.5 -69.5t10.5 -93.5l6 -43l-168 -9q-16 0 -19.5 -23z" />
<glyph unicode="&#xa4;" d="M199 1247q10 16 18.5 23t21.5 4t22.5 -8.5t33.5 -20.5q20 -12 82 -82q111 99 233 99q97 0 191 -64l69 92q2 3 5.5 8.5t14 18.5t21 22t24.5 15t26 2q11 -4 14.5 -16.5t0 -28t-8.5 -30t-10 -24.5l-5 -10l-78 -114q60 -69 95 -157t35 -177q0 -119 -66 -211l45 -56 q1 -2 3.5 -4.5t8.5 -11t11.5 -17t11 -19t8.5 -19.5t3 -17.5t-5 -13.5q-16 -16 -43.5 -0.5t-47.5 38.5l-20 24l-36 30q-109 -86 -267 -86q-106 0 -188 39l-45 -67q-1 -2 -3 -5t-8.5 -11t-14 -15t-19 -15t-24 -12t-28.5 -4t-32 6q-22 8 -29.5 23t-2.5 31.5t13.5 31.5t16.5 25 l8 10l57 78q-94 101 -94 248q0 152 92 284l-73 66q-11 7 -13 14q-43 55 -24 84zM348 797q0 -63 25.5 -111t66 -73.5t83 -37.5t85.5 -12q132 0 195.5 58t68.5 176q3 77 -25.5 157t-88 137.5t-133.5 57.5q-70 0 -134.5 -50.5t-103.5 -132.5t-39 -169z" />
<glyph unicode="&#xa5;" horiz-adv-x="841" d="M76 1008q0 28 29 42.5t69 14.5q15 0 24.5 -3.5t12.5 -5.5t9.5 -12t8.5 -12q5 -7 24 -58t63 -149t106 -204q59 107 102.5 203.5t62.5 145t25 56.5q2 3 6 8.5t6 8t6 6t8.5 5t12 3.5t17.5 2q41 0 69.5 -14t28.5 -41q1 -29 -47 -121t-164 -294q-19 -33 -29 -50h95 q28 0 51 -13q22 -12 26 -34q2 -7 3 -12t0 -9.5t-1.5 -7t-4 -5t-5.5 -4t-8.5 -3t-10.5 -2t-14 -2.5t-16 -3q-26 -7 -139 0q0 -10 1 -30t1 -29l149 -12q45 -2 45 -25q0 -22 -18 -33.5t-36 -12.5l-19 -1h-115q3 -51 8 -112.5t7.5 -98t2.5 -51.5q0 -28 -36 -36.5t-71.5 7 t-35.5 45.5q0 131 -4 244h-164q-30 0 -51 12q-22 13 -27 35q-3 11 -2.5 18t1 11t7.5 7t11 4.5t18 4t23 4.5q27 5 180 -2q-1 9 -2 29t-2 29l-189 14q-45 2 -45 27q0 21 18.5 32.5t36.5 13.5l19 1h135q-38 62 -89 143.5t-78 125t-54.5 90t-39 72t-11.5 38.5z" />
<glyph unicode="&#xa6;" horiz-adv-x="370" d="M102.5 25.5q1.5 -32.5 5.5 -55.5l5 -23l28 -203q0 -4 1.5 -11.5t6.5 -26.5t11.5 -33t19.5 -26t29 -12q25 0 38 31.5t13 63.5v32l6 283q1 5 1.5 13.5t-2 30t-10.5 38t-29 30t-52 13.5t-49 -23t-21 -56t-1.5 -65.5zM102.5 1089q1.5 -33 5.5 -56l5 -23l28 -203 q0 -4 1.5 -11.5t6.5 -26.5t11.5 -33t19.5 -26t29 -12q25 0 38 32t13 64v31l6 283q1 5 1.5 13.5t-2 30t-10.5 38t-29 30t-52 13.5t-49 -23t-21 -55.5t-1.5 -65.5z" />
<glyph unicode="&#xa7;" horiz-adv-x="1062" d="M205 666q0 59 45 104t117 70q-101 80 -101 184q0 103 124.5 163t249 34t124.5 -129q0 -45 -17.5 -73t-42.5 -36t-50 -10t-42 2l-18 4q0 3 1 8.5t1.5 22t0 31t-3.5 32.5t-9.5 31t-18.5 22t-28 9q-109 0 -109 -117q0 -33 44.5 -68t107.5 -71t126 -78t107.5 -106t44.5 -140 q0 -60 -43.5 -102t-114.5 -64q88 -88 88 -192q0 -66 -54.5 -113.5t-132 -61.5t-155 -8t-132 47t-54.5 103q0 34 7.5 60.5t19 42.5t27.5 26.5t31.5 14.5t32 5t28.5 0t22 -3l10 -1q4 -5 3.5 -33t-3.5 -61l-4 -33q0 -3 0.5 -8.5t5 -19.5t12.5 -24.5t25.5 -19t42.5 -8.5 q46 0 68 31t22 66t-13 63.5t-42 53t-53 39.5t-68 38q-31 15 -47 27q-41 22 -69 42.5t-56 50t-42.5 68t-14.5 85.5zM367 657q0 -24 23 -49t51 -43t80.5 -49t82.5 -51q35 7 51.5 35.5t16.5 58.5q0 44 -27 86l-4 6l-27 31q-19 17 -41 31.5t-62 37.5t-50 29q-26 -1 -44.5 -10 t-27.5 -21t-14.5 -30t-6.5 -31t-1 -31z" />
<glyph unicode="&#xa8;" d="M479 1339q-4 20 12.5 52t51.5 32q23 0 39 -15.5t21 -30.5l5 -15q11 -20 3.5 -38t-31.5 -24q-26 -4 -62 10t-39 29zM717 1350q-5 23 6.5 48t44.5 25q24 0 41 -15.5t22 -30.5l5 -15q10 -20 2 -38t-33 -24q-24 -4 -53.5 15t-34.5 35z" />
<glyph unicode="&#xa9;" horiz-adv-x="1251" d="M102 1026q0 148 71 263t189.5 176t262.5 61q145 0 263.5 -61t189.5 -176t71 -263q0 -147 -71 -258t-189 -167t-264 -56q-145 0 -262.5 56t-189 167t-71.5 258zM201 1001q0 -110 66.5 -197t164 -130t201.5 -43q77 0 150 24.5t132.5 69t95.5 114.5t36 154q0 94 -18 167.5 t-51.5 121t-74 79.5t-93 48t-99.5 22.5t-103 6.5q-99 0 -193.5 -60t-154 -162t-59.5 -215zM383 1049q0 97 70 172t182 75q73 0 133.5 -52.5t60.5 -96.5q0 -18 -22 -26.5t-45 -8.5q-8 0 -22.5 29t-41 58.5t-63.5 29.5q-158 0 -158 -193q0 -70 37.5 -128t114.5 -58 q40 0 66.5 19t35.5 42.5t18.5 42.5t18.5 19q29 0 55.5 -11t26.5 -36q0 -40 -66 -100t-159 -60q-74 0 -131 43t-84 106t-27 134z" />
<glyph unicode="&#xab;" horiz-adv-x="997" d="M2 647q0 16 14 36t28 32l13 12l334 291q4 5 11.5 11t30 6t44.5 -23q14 -14 19.5 -28.5t3 -25.5t-7 -20t-8.5 -14l-5 -4l-303 -287l326 -338q2 -2 6 -5t11.5 -13t11 -20t0 -24.5t-16.5 -27.5q-21 -20 -45 -22t-37 6l-14 8l-369 368q-47 43 -47 82zM326 647q0 16 14 36 t28 32l13 12l332 291q4 5 11.5 11t30.5 6t46 -23q22 -22 22 -45t-11 -35l-11 -12l-303 -287l325 -338q2 -2 6 -5t12 -13t11.5 -20t0 -24.5t-16.5 -27.5q-21 -20 -45 -22t-38 6l-14 8l-368 368q-45 43 -45 82z" />
<glyph unicode="&#xac;" horiz-adv-x="1118" d="M76 614q0 31 32 48.5t64 19.5l33 2h704q37 0 64.5 -9.5t40 -22.5t19 -26t7.5 -22.5t0 -9.5v-184q-1 -1 0 -13t-1.5 -31.5t-6.5 -38t-15 -31.5t-26 -13q-25 0 -42.5 26.5t-22.5 52.5l-4 27l-7 158l-712 16q-62 2 -93.5 14.5t-32.5 24.5z" />
<glyph unicode="&#xad;" horiz-adv-x="587" d="M70 514.5q0 -7.5 2 -18.5q2 -9 7.5 -16t11 -11t15.5 -7t15 -4t16.5 -3t12.5 -2h18l225 14q5 -1 13 -1.5t29 0t37 3t29 11t13 22.5q0 16 -25 26.5t-50 13.5l-25 3q-9 1 -22.5 3t-55.5 7t-72 7t-70 4t-51 -3q-18 -4 -23.5 -5.5t-17.5 -5t-15 -6.5t-9 -7.5t-7 -10.5 t-1 -13.5z" />
<glyph unicode="&#xae;" horiz-adv-x="1249" d="M102 1026q0 148 70.5 263t189 176t263.5 61t263 -61t188.5 -176t70.5 -263q0 -147 -70.5 -258t-188 -167t-263.5 -56t-263.5 56t-188.5 167t-71 258zM201 1001q0 -110 66.5 -197t163.5 -130t200 -43q77 0 150 24.5t132 69t95 114.5t36 154q0 112 -27 195t-68 130t-102 75 t-116.5 36.5t-124.5 8.5q-99 0 -193 -60t-153 -162t-59 -215zM422 1260q0 18 23.5 27.5t48.5 6.5q24 3 52 3.5t73.5 -5.5t80 -20.5t60.5 -48t26 -82.5q0 -42 -20 -72q88 -31 88 -129l-6 -127q0 -5 -1.5 -12t-13.5 -19t-32 -12q-18 0 -30.5 8t-15.5 16l-3 7v147q0 81 -220 45 l5 -188q0 -17 -21 -21.5t-42 5t-21 26.5q0 18 -15.5 220.5t-15.5 224.5zM528 1223q1 -19 2 -67.5t2 -72.5q30 -1 67.5 -1.5t70 19.5t32.5 58q0 71 -174 64z" />
<glyph unicode="&#xaf;" d="M301 1386q0 -11 11.5 -17.5t23.5 -7.5l12 -1q10 -1 27.5 -3t72 -7.5t99 -10t110.5 -11t105.5 -9t84 -5t46.5 0.5q41 9 54.5 23t6.5 44q-3 23 -30 39q-23 13 -52 13h-495h-8t-18.5 -2.5t-23.5 -7t-18 -14.5t-8 -24z" />
<glyph unicode="&#xb0;" horiz-adv-x="464" d="M20 1120q0 77 54 125.5t131 48.5q78 0 131 -48t53 -126q0 -79 -52.5 -125.5t-131.5 -46.5q-78 0 -131.5 46.5t-53.5 125.5zM125 1116q0 -34 26.5 -63t55.5 -29q28 0 53 28.5t25 61.5q0 51 -25.5 80t-56.5 29q-28 0 -53 -36.5t-25 -70.5z" />
<glyph unicode="&#xb1;" horiz-adv-x="634" d="M78 633q-6 28 6.5 40.5t50.5 20.5q16 4 133 -4l13 115q1 9 3 22.5t13 35.5t27 22q17 0 25.5 -24.5t8.5 -48.5v-24v-106l119 -12q9 -1 22.5 -3.5t36.5 -13.5t23 -26q0 -18 -24.5 -27.5t-48.5 -9.5h-25h-101v-80l-2 -14q-6 -54 -41 -64q-28 -6 -41.5 7t-21.5 50 q-2 16 4 101h-102h-17q-55 12 -61 43zM90 332q6 -25 55 -31q1 0 4 -0.5t5.5 -0.5t5.5 1h274q4 0 9.5 -0.5t21 -0.5t27 2t21 8t9.5 16q0 11 -18 18.5t-36 9.5l-19 2q-30 4 -75 9t-129.5 11.5t-103.5 2.5q-36 -7 -46.5 -14.5t-4.5 -32.5z" />
<glyph unicode="&#xb4;" d="M497.5 1408q9.5 -20 37.5 -26q29 -5 143 26.5t117 47.5q4 22 -14.5 57t-55.5 35q-25 0 -81.5 -24.5t-99.5 -49.5l-44 -24q-12 -22 -2.5 -42z" />
<glyph unicode="&#xb6;" horiz-adv-x="1034" d="M76 1026q0 110 49 205.5t129.5 159t183.5 99.5t211 36q184 0 309 -33v-1507q-1 0 -1.5 -13t-3 -32t-7.5 -37.5t-16 -31.5t-27 -13q-25 0 -42.5 27t-22.5 54l-4 27l-21 598l-4 92l-27 777q-86 4 -151 4q-4 0 -14 -1t-15 -1q3 -13 3 -25.5t-2 -19.5t-5 -7v-749l-4 -88v-561 q-1 -1 0 -13t-1.5 -31.5t-7 -38t-15.5 -31.5t-27 -13q-25 0 -42.5 27t-22.5 54l-5 27l-24 606q-164 48 -268.5 167.5t-104.5 285.5z" />
<glyph unicode="&#xb7;" horiz-adv-x="1038" d="M233 604q0 9 2 24t17.5 54t42 68.5t84.5 54t137 24.5q45 0 82.5 -6t64 -15.5t47.5 -24t34.5 -28.5t22.5 -32.5t13.5 -33t6.5 -32t2 -27.5t-0.5 -22.5t-0.5 -13.5q0 -42 -15 -76.5t-38 -54.5t-45 -33.5t-41 -21.5t-20 -9q-5 -5 7 -68t9 -65q-4 -6 -24.5 -8.5t-24.5 2.5 q-4 3 -4.5 39t-3.5 37q-2 3 -13 4.5t-14 -2.5q-3 -2 1 -54t1 -55q-21 -11 -26 -4q-3 3 -1.5 71.5t-0.5 70.5q-3 3 -13 3.5t-12 -3.5q-3 -1 -0.5 -61.5t0.5 -63.5q-26 -13 -33 -4q-5 4 -5 49t-3 47q-2 4 -8.5 3.5t-11.5 -3.5q-2 -3 -5 -41t-6 -41t-26 1t-31 11q-5 5 11 68 t11 67q-1 2 -19.5 7t-43 16.5t-49 31.5t-41.5 59t-17 91zM309 592q0 -45 29 -65.5t55 -20.5q94 0 94 88q0 22 -9 38t-22 24t-26 12.5t-22 5.5h-9q-90 0 -90 -82zM473 434q6 -5 60 -2t63 10q7 7 -28.5 48.5t-45.5 41.5q-9 0 -31.5 -46t-17.5 -52zM592 594q0 -13 1.5 -22.5 t15.5 -21t40 -11.5q24 0 37.5 12.5t14.5 24.5l1 12v6t-3 14t-7.5 17.5t-16 13.5t-26.5 6q-24 0 -38 -12.5t-17 -25.5z" />
<glyph unicode="&#xb8;" d="M517 -116q-3 -8 1 -21q2 -9 11.5 -19t26.5 -15.5t37 -3t45 24t48 60.5q25 48 19 100v13.5t-3.5 30.5t-10.5 39t-23 30.5t-39 13.5q-37 0 -52 -34.5t-11 -68.5l3 -34q1 -26 -3.5 -46.5t-11.5 -31t-13.5 -17t-11.5 -7.5l-5 -2l-2.5 -2.5t-4.5 -9.5z" />
<glyph unicode="&#xbb;" horiz-adv-x="993" d="M1.5 150.5q3.5 -14.5 16.5 -27.5q21 -21 45 -23t38 6l14 9l368 368q45 41 45 80q0 16 -14 36.5t-28 32.5l-13 13l-332 291q-4 5 -12 10.5t-31 5.5t-45 -22t-22 -45t11 -35l11 -12l303 -289l-325 -336q-2 -2 -6 -5t-12 -13t-11.5 -20t0 -24.5zM323.5 150.5 q3.5 -14.5 16.5 -27.5q21 -21 45 -23t37 6l14 9l369 368q45 41 45 80q0 16 -13 36.5t-27 32.5l-13 13l-334 291q-4 5 -11.5 10.5t-30.5 5.5t-46 -22q-22 -22 -22 -45t11 -35l11 -12l303 -289l-326 -336q-2 -2 -6 -5t-11.5 -13t-11 -20t0 -24.5z" />
<glyph unicode="&#xbf;" horiz-adv-x="827" d="M61 -90q0 47 15 84.5t39.5 64t53.5 54t58.5 63.5t54 82.5t39.5 121.5t15 171q0 29 46.5 39t93 -3.5t46.5 -41.5q0 -74 -17 -138t-44 -109t-60 -85t-65.5 -73.5t-59.5 -66.5t-44 -72.5t-17 -82.5q0 -4 -0.5 -24t-1 -33t2.5 -36t8.5 -39t17.5 -35t28.5 -30.5t43.5 -19.5 t61 -8q53 0 88 19t49.5 49t19.5 66.5t-1 73t-12.5 66.5t-13.5 49l-7 19q10 3 26.5 7.5t59.5 10t75.5 1.5t59 -28t26.5 -69q0 -193 -131 -293q-106 -80 -247 -70q-137 11 -224 101q-82 86 -82 215zM340.5 813.5q10.5 24.5 44.5 30.5q35 7 82.5 -10.5t52.5 -38.5 q4 -16 -2.5 -42t-28.5 -49.5t-55 -23.5q-31 0 -53.5 20.5t-29.5 41.5l-7 20q-14 27 -3.5 51.5z" />
<glyph unicode="&#xc0;" horiz-adv-x="751" d="M49 47q0 24 108.5 526.5t108.5 532.5q0 32 57.5 46t92.5 -3q45 -14 45 -45q0 -30 107.5 -532.5t107.5 -526.5t-30 -36.5t-59.5 -5.5t-29.5 30t-72 329h-221q-71 -298 -71 -327q0 -24 -36 -31t-72 6t-36 37zM169.5 1385q9.5 20 37.5 24q30 6 143.5 -24.5t116.5 -47.5 q4 -22 -14.5 -57t-55.5 -35q-25 0 -81.5 24.5t-99.5 48.5l-44 25q-12 22 -2.5 42zM289 463h172l-86 364q-13 -57 -86 -364z" />
<glyph unicode="&#xc1;" horiz-adv-x="751" d="M49 47q0 24 108.5 526.5t108.5 532.5q0 32 57.5 46t92.5 -3q45 -14 45 -45q0 -30 107.5 -532.5t107.5 -526.5t-30 -36.5t-59.5 -5.5t-29.5 30t-72 329h-221q-71 -298 -71 -327q0 -24 -36 -31t-72 6t-36 37zM289 463h172l-86 364q-13 -57 -86 -364zM294 1262q9 -21 36 -25 q30 -6 144 24.5t118 47.5q4 22 -14.5 57t-55.5 35q-25 0 -81.5 -24t-100.5 -48l-43 -24q-12 -22 -3 -43z" />
<glyph unicode="&#xc2;" horiz-adv-x="751" d="M49 47q0 24 108.5 526.5t108.5 532.5q0 32 57.5 46t92.5 -3q45 -14 45 -45q0 -30 107.5 -532.5t107.5 -526.5t-30 -36.5t-59.5 -5.5t-29.5 30t-72 329h-221q-71 -298 -71 -327q0 -24 -36 -31t-72 6t-36 37zM166 1241.5q-8 18.5 2 38.5q17 17 43 42.5t80 68.5t78 43h2h2 q23 0 72.5 -38.5t87.5 -77.5l38 -38q10 -20 2.5 -38.5t-32.5 -22.5q-16 -3 -69.5 24t-100.5 60q-50 -33 -103 -60t-69 -24q-25 4 -33 22.5zM289 463h172l-86 364q-13 -57 -86 -364z" />
<glyph unicode="&#xc3;" horiz-adv-x="751" d="M49 47q0 24 108.5 526.5t108.5 532.5q0 32 57.5 46t92.5 -3q45 -14 45 -45q0 -30 107.5 -532.5t107.5 -526.5t-30 -36.5t-59.5 -5.5t-29.5 30t-72 329h-221q-71 -298 -71 -327q0 -24 -36 -31t-72 6t-36 37zM151 1297.5q-4 -31.5 9 -40.5q22 -17 45 -16.5t39 16.5 q7 8 12.5 30t12.5 38t20 16q21 0 73 -34q1 -1 18 -9.5t22 -10.5t21 -8t26 -8t26.5 -4.5t32.5 -2.5q37 0 59.5 26t28 59.5t3 64t-10.5 40.5q-15 20 -39 20t-43 -20q-9 -10 -15.5 -30.5t-13.5 -33t-20 -12.5q-20 0 -72 31q-28 15 -41 21.5t-39 13t-57 6.5q-26 0 -49 -26.5 t-33.5 -60.5t-14.5 -65.5zM289 463h172l-86 364q-13 -57 -86 -364z" />
<glyph unicode="&#xc4;" horiz-adv-x="751" d="M49 47q0 24 108.5 526.5t108.5 532.5q0 32 57.5 46t92.5 -3q45 -14 45 -45q0 -30 107.5 -532.5t107.5 -526.5t-30 -36.5t-59.5 -5.5t-29.5 30t-72 329h-221q-71 -298 -71 -327q0 -24 -36 -31t-72 6t-36 37zM182 1294q-4 21 13 52.5t51 31.5q23 0 39 -15t21 -29l5 -15 q11 -20 3.5 -39t-31.5 -23q-26 -4 -62 9.5t-39 27.5zM289 463h172l-86 364q-13 -57 -86 -364zM420 1307q-5 21 6.5 46t44.5 25q24 0 41 -15t22 -29l5 -15q10 -20 2 -39t-33 -23q-24 -4 -53.5 14.5t-34.5 35.5z" />
<glyph unicode="&#xc5;" horiz-adv-x="751" d="M49 47q0 24 108.5 526.5t108.5 532.5q0 8 2 12q-59 40 -59 119q0 68 46 110t114 42q67 0 113 -42t46 -110q0 -85 -69 -125l2 -8q0 -30 107.5 -532.5t107.5 -526.5t-30 -36.5t-59.5 -5.5t-29.5 30t-72 329h-221q-71 -298 -71 -327q0 -24 -36 -31t-72 6t-36 37zM289 463 h172l-86 364zM299 1233q0 -24 17.5 -47t39.5 -29h25q24 6 40.5 28t16.5 48q0 44 -22 69t-49 25q-25 0 -46.5 -31.5t-21.5 -62.5z" />
<glyph unicode="&#xc6;" horiz-adv-x="1220" d="M47 47q0 25 176 529t176 534q0 26 51.5 45t102.5 19q4 2 10 2q25 -1 246.5 3t251.5 3q29 -3 41.5 -41.5t2 -75t-37.5 -33.5q-17 0 -188.5 5.5t-249.5 6.5q10 -213 14 -372q176 -4 262 -13q23 -1 28 -30.5t-9.5 -58t-38.5 -27.5q-23 2 -115 -1t-121 -3q2 -38 7 -138 t6 -147q1 -22 4 -59t4 -48q149 -9 460 -24q23 -1 28 -30.5t-9.5 -58.5t-38.5 -28q-27 1 -232 -2.5t-247 -3.5h-23q-38 0 -49 23q-8 12 -8 22q0 8 -3 48t-9 124t-11 148h-221q-49 -122 -81.5 -218t-32.5 -112q0 -23 -36.5 -30t-73 5.5t-36.5 36.5zM330 467h192l-28 393 q-15 -37 -164 -393z" />
<glyph unicode="&#xc7;" horiz-adv-x="854" d="M55 606q0 163 54 301.5t146 218.5t200 80q103 0 188.5 -74.5t85.5 -136.5q0 -28 -34 -62t-60 -34q-10 0 -25.5 26.5t-32 57.5t-49 57.5t-73.5 26.5q-105 0 -168.5 -117.5t-63.5 -320.5q0 -221 60.5 -343t179.5 -122q46 0 80.5 18t52.5 43.5t30.5 51t22.5 43.5t21 18 q41 0 79.5 -16.5t38.5 -51.5q0 -19 -19.5 -55t-52 -76t-84.5 -76.5t-108 -50.5q0 -45 -18 -75q-19 -32 -39 -50t-36 -20.5t-30 2.5t-22 13t-10 16q-3 10 -2 16t3 9l3 3q4 1 10.5 4t17 23.5t9.5 54.5q-150 25 -252.5 196t-102.5 402z" />
<glyph unicode="&#xc8;" horiz-adv-x="804" d="M51 1118q0 22 20.5 35t51.5 16q4 2 14 2q21 -1 243 4t255 3q28 -2 40 -40t2 -75t-36 -35q-79 4 -438 14q2 -45 6.5 -172.5t7.5 -199.5q85 -2 260 -11q24 -2 29.5 -31.5t-9 -58t-38.5 -26.5q-1 0 -236 -6l17 -390q129 -8 462 -24q23 -2 28 -32t-9.5 -58.5t-38.5 -26.5 q-45 2 -122 0.5t-197 -4t-158 -2.5q-29 -3 -54.5 9.5t-25.5 35.5q0 25 -37 534t-37 539zM143.5 1451q8.5 20 36.5 24q30 6 143.5 -24.5t116.5 -47.5q6 -21 -12.5 -56.5t-56.5 -35.5q-25 0 -81 24.5t-100 48.5l-43 25q-12 22 -3.5 42z" />
<glyph unicode="&#xc9;" horiz-adv-x="804" d="M51 1118q0 22 20.5 35t51.5 16q4 2 14 2q21 -1 243 4t255 3q28 -2 40 -40t2 -75t-36 -35q-79 4 -438 14q2 -45 6.5 -172.5t7.5 -199.5q85 -2 260 -11q24 -2 29.5 -31.5t-9 -58t-38.5 -26.5q-1 0 -236 -6l17 -390q129 -8 462 -24q23 -2 28 -32t-9.5 -58.5t-38.5 -26.5 q-45 2 -122 0.5t-197 -4t-158 -2.5q-29 -3 -54.5 9.5t-25.5 35.5q0 25 -37 534t-37 539zM206.5 1327.5q9.5 -20.5 37.5 -24.5q29 -6 143 24t117 47q4 22 -14.5 57t-55.5 35q-25 0 -81.5 -24t-100.5 -48l-43 -24q-12 -22 -2.5 -42.5z" />
<glyph unicode="&#xca;" horiz-adv-x="804" d="M51 1118q0 22 20.5 35t51.5 16q4 2 14 2q21 -1 243 4t255 3q28 -2 40 -40t2 -75t-36 -35q-79 4 -438 14q2 -45 6.5 -172.5t7.5 -199.5q85 -2 260 -11q24 -2 29.5 -31.5t-9 -58t-38.5 -26.5q-1 0 -236 -6l17 -390q129 -8 462 -24q23 -2 28 -32t-9.5 -58.5t-38.5 -26.5 q-45 2 -122 0.5t-197 -4t-158 -2.5q-29 -3 -54.5 9.5t-25.5 35.5q0 25 -37 534t-37 539zM153 1333q-8 18 3 37q16 17 42 43t80 69.5t78 43.5h2q23 0 72.5 -39t87.5 -78l39 -39q11 -19 3 -37t-32 -22q-16 -3 -68 23t-104 59q-50 -32 -103 -58.5t-67 -23.5q-25 4 -33 22z" />
<glyph unicode="&#xcb;" horiz-adv-x="804" d="M51 1118q0 22 20.5 35t51.5 16q4 2 14 2q21 -1 243 4t255 3q28 -2 40 -40t2 -75t-36 -35q-79 4 -438 14q2 -45 6.5 -172.5t7.5 -199.5q85 -2 260 -11q24 -2 29.5 -31.5t-9 -58t-38.5 -26.5q-1 0 -236 -6l17 -390q129 -8 462 -24q23 -2 28 -32t-9.5 -58.5t-38.5 -26.5 q-45 2 -122 0.5t-197 -4t-158 -2.5q-29 -3 -54.5 9.5t-25.5 35.5q0 25 -37 534t-37 539zM178 1366q-4 21 12 52.5t50 31.5q24 0 40.5 -15t21.5 -31l5 -15q10 -19 2 -37.5t-33 -22.5t-60 9.5t-38 27.5zM416 1378q-5 21 6.5 46.5t44.5 25.5q23 0 40 -15t23 -31l5 -15 q10 -19 2 -37.5t-33 -22.5t-55 14.5t-33 34.5z" />
<glyph unicode="&#xcc;" horiz-adv-x="555" d="M76.5 1475q8.5 20 36.5 26q30 5 144 -25.5t118 -45.5q4 -25 -14 -60t-56 -35q-25 0 -81.5 24.5t-99.5 49.5l-44 25q-12 21 -3.5 41zM80.5 1181q10.5 34 36.5 31q28 -2 159 -7t158 -7q23 -1 28 -31t-10 -59.5t-40 -28.5q-6 1 -16 1t-25 -0.5t-25 -0.5q3 -107 18.5 -477.5 t18.5 -472.5q69 -4 86 -6q24 -1 29.5 -31t-9.5 -59t-40 -27q-23 2 -140 -2.5t-149 -1.5q-29 1 -41.5 36t-2 69t37.5 32q24 -2 108 -6l-67 942h-72q-29 1 -41 36.5t-1.5 69.5z" />
<glyph unicode="&#xcd;" horiz-adv-x="587" d="M80.5 1181q10.5 34 36.5 31q28 -2 159 -7t158 -7q23 -1 28 -31t-10 -59.5t-40 -28.5q-6 1 -16 1t-25 -0.5t-25 -0.5q3 -107 18.5 -477.5t18.5 -472.5q69 -4 86 -6q24 -1 29.5 -31t-9.5 -59t-40 -27q-23 2 -140 -2.5t-149 -1.5q-29 1 -41.5 36t-2 69t37.5 32q24 -2 108 -6 l-67 942h-72q-29 1 -41 36.5t-1.5 69.5zM207.5 1340.5q8.5 -19.5 36.5 -23.5q30 -6 143.5 24.5t116.5 47.5q6 21 -13 56.5t-57 35.5q-25 0 -81 -24.5t-99 -49.5l-43 -25q-12 -22 -3.5 -41.5z" />
<glyph unicode="&#xce;" horiz-adv-x="561" d="M67.5 1335q-7.5 18 2.5 37q16 17 42 43t80 69.5t78 43.5q0 -2 2 -2l2 2q23 0 72.5 -39t87.5 -78l39 -39q10 -19 2 -37t-33 -22q-16 -3 -68.5 23.5t-101.5 58.5q-52 -33 -104 -59t-68 -23q-25 4 -32.5 22zM80.5 1181q10.5 34 36.5 31q28 -2 159 -7t158 -7q23 -1 28 -31 t-10 -59.5t-40 -28.5q-6 1 -16 1t-25 -0.5t-25 -0.5q3 -107 18.5 -477.5t18.5 -472.5q69 -4 86 -6q24 -1 29.5 -31t-9.5 -59t-40 -27q-23 2 -140 -2.5t-149 -1.5q-29 1 -41.5 36t-2 69t37.5 32q24 -2 108 -6l-67 942h-72q-29 1 -41 36.5t-1.5 69.5z" />
<glyph unicode="&#xcf;" horiz-adv-x="555" d="M80.5 1181q10.5 34 36.5 31q28 -2 159 -7t158 -7q23 -1 28 -31t-10 -59.5t-40 -28.5q-6 1 -16 1t-25 -0.5t-25 -0.5q3 -107 18.5 -477.5t18.5 -472.5q69 -4 86 -6q24 -1 29.5 -31t-9.5 -59t-40 -27q-23 2 -140 -2.5t-149 -1.5q-29 1 -41.5 36t-2 69t37.5 32q24 -2 108 -6 l-67 942h-72q-29 1 -41 36.5t-1.5 69.5zM84 1389q-5 20 11.5 52t51.5 32q23 0 39.5 -15.5t21.5 -31.5l5 -15q10 -19 2 -37t-33 -22q-24 -4 -59.5 9.5t-38.5 27.5zM322 1399q-5 23 6.5 48.5t44.5 25.5q24 0 40.5 -15.5t21.5 -31.5l5 -15q10 -19 2.5 -37t-32.5 -22 q-24 -4 -54.5 14t-33.5 33z" />
<glyph unicode="&#xd0;" horiz-adv-x="1077" d="M-53 569q0 18 15.5 28.5t30.5 11.5l15 1h174q-35 486 -35 523q0 27 34.5 41.5t70.5 9.5q31 -3 66.5 -9.5t104 -28t128.5 -52t128.5 -87t116.5 -128t80.5 -179.5t32.5 -237q0 -104 -32 -185.5t-80 -130t-114.5 -81t-124 -45.5t-121 -17.5t-93.5 -3t-53 3.5q-27 0 -48.5 12 t-21.5 31q0 11 -4.5 75t-13.5 188t-15 216l-204 21q-37 2 -37 22zM301 1008q0 -12 16 -398h107q20 0 43 -10q22 -15 25 -33q7 -26 -5 -37.5t-47 -19.5q-22 -4 -118 6q4 -140 14 -358q30 -5 60.5 -6.5t73 2.5t79.5 15.5t75 37t65 62.5t44 97t17 136q0 87 -18.5 160t-47.5 123 t-70 89.5t-81 62.5t-86 39t-79.5 22.5t-66.5 9.5z" />
<glyph unicode="&#xd1;" horiz-adv-x="931" d="M49 1124q0 26 31.5 41t67.5 11.5t47 -23.5q13 -18 104.5 -183t218 -395t166.5 -303q61 804 61 854q0 24 29.5 37t58.5 6t29 -30q0 -24 -21.5 -549t-21.5 -553q0 -24 -30 -33t-65 -0.5t-48 29.5l-4 4q-457 787 -461 794q5 -124 13 -326.5t13 -327t5 -138.5q0 -24 -30 -31 t-59.5 6t-29.5 37q0 25 -37 534t-37 539zM212 1340q-4 -31 9 -40q24 -18 47 -17t37 17q7 8 13 29.5t13 37t19 15.5q28 0 74 -32q80 -43 145 -43q38 0 61.5 26t28.5 59t2 63.5t-12 41.5q-15 20 -39 20t-41 -20q-10 -11 -16.5 -31.5t-13 -33.5t-19.5 -13q-18 0 -74 31 q-26 15 -39.5 22t-39.5 14t-56 7q-27 0 -50.5 -27t-34 -61t-14.5 -65z" />
<glyph unicode="&#xd2;" horiz-adv-x="935" d="M53 539q0 168 54.5 326.5t150.5 260t205 101.5t204 -101.5t149 -260t54 -326.5q0 -248 -116 -393.5t-291 -145.5t-292.5 146t-117.5 393zM208.5 1457q8.5 20 35.5 26q30 5 144 -26t118 -46q4 -25 -14 -59.5t-56 -34.5q-25 0 -81.5 24.5t-100.5 48.5l-43 25 q-11 22 -2.5 42zM217 524q0 -163 77 -265.5t171 -102.5t167 97.5t73 260.5q0 139 -23 253.5t-60 184.5t-81 108t-88 38q-56 0 -112 -96t-90 -230t-34 -248z" />
<glyph unicode="&#xd3;" horiz-adv-x="935" d="M53 539q0 168 54.5 326.5t150.5 260t205 101.5t204 -101.5t149 -260t54 -326.5q0 -248 -116 -393.5t-291 -145.5t-292.5 146t-117.5 393zM217 524q0 -163 77 -265.5t171 -102.5t167 97.5t73 260.5q0 139 -23 253.5t-60 184.5t-81 108t-88 38q-56 0 -112 -96t-90 -230 t-34 -248zM361 1337q8 -20 36 -26q30 -5 143.5 25.5t116.5 45.5q6 23 -12.5 59t-56.5 36q-25 0 -81 -24.5t-99 -49.5l-43 -25q-12 -21 -4 -41z" />
<glyph unicode="&#xd4;" horiz-adv-x="935" d="M53 539q0 168 54.5 326.5t150.5 260t205 101.5t204 -101.5t149 -260t54 -326.5q0 -248 -116 -393.5t-291 -145.5t-292.5 146t-117.5 393zM217 524q0 -163 77 -265.5t171 -102.5t167 97.5t73 260.5q0 139 -23 253.5t-60 184.5t-81 108t-88 38q-56 0 -112 -96t-90 -230 t-34 -248zM254 1315q-8 19 2 39q17 17 43 42.5t79.5 68t76.5 42.5h2h4q23 0 72.5 -38.5t87.5 -76.5l38 -38q10 -20 2.5 -39t-32.5 -23q-16 -3 -69 24t-103 60q-47 -33 -100.5 -60t-69.5 -24q-25 4 -33 23z" />
<glyph unicode="&#xd5;" horiz-adv-x="935" d="M53 539q0 168 54.5 326.5t150.5 260t205 101.5t204 -101.5t149 -260t54 -326.5q0 -248 -116 -393.5t-291 -145.5t-292.5 146t-117.5 393zM213 1343.5q-3 -31.5 10 -40.5q22 -17 45 -16.5t37 16.5q7 9 13 30.5t13 37t19 15.5q20 0 76 -32q75 -43 143 -43q38 0 61.5 25.5 t28.5 59.5t2.5 64t-10.5 41q-18 19 -41 19.5t-41 -19.5q-10 -11 -16.5 -32t-13 -33.5t-19.5 -12.5q-19 0 -71 31q-28 16 -41.5 22.5t-40 13.5t-56.5 7q-27 0 -50.5 -27t-34 -61t-13.5 -65.5zM217 524q0 -163 77 -265.5t171 -102.5t167 97.5t73 260.5q0 139 -23 253.5 t-60 184.5t-81 108t-88 38q-56 0 -112 -96t-90 -230t-34 -248z" />
<glyph unicode="&#xd6;" horiz-adv-x="935" d="M53 539q0 168 54.5 326.5t150.5 260t205 101.5t204 -101.5t149 -260t54 -326.5q0 -248 -116 -393.5t-291 -145.5t-292.5 146t-117.5 393zM217 524q0 -163 77 -265.5t171 -102.5t167 97.5t73 260.5q0 139 -23 253.5t-60 184.5t-81 108t-88 38q-56 0 -112 -96t-90 -230 t-34 -248zM260 1368q-4 20 12 52t50 32q24 0 40.5 -15t21.5 -31l5 -15q10 -20 2 -38t-33 -22q-26 -6 -60.5 8t-37.5 29zM498 1378q-5 23 6.5 48.5t44.5 25.5q23 0 39.5 -15t21.5 -31l6 -15q10 -20 2.5 -38t-32.5 -22q-24 -6 -54.5 12.5t-33.5 34.5z" />
<glyph unicode="&#xd7;" horiz-adv-x="526" d="M75.5 369.5q-0.5 18.5 20.5 48.5q11 17 97 92l-72 90q-2 3 -5 7t-11 16.5t-11.5 22t-5.5 22.5t6 18q16 11 37 1.5t39 -27.5l18 -17l76 -74l92 74q3 2 7 5t17 11.5t22.5 11.5t23 5.5t18.5 -6.5q11 -16 1.5 -37.5t-27.5 -39.5l-17 -18l-71 -71l76 -76q8 -8 10 -12 q32 -45 14 -74q-17 -24 -35.5 -24.5t-48.5 20.5q-26 19 -88 94l-74 -74l-10 -10q-49 -30 -74 -14q-24 17 -24.5 35.5z" />
<glyph unicode="&#xd8;" horiz-adv-x="935" d="M53 539q0 168 54.5 326.5t150.5 260t205 101.5q69 0 131 -41l14 47q1 5 3 13t9.5 28.5t16 36t23 28.5t30.5 13q26 0 36 -35t6 -70l-3 -35l-33 -120q79 -101 126.5 -250t47.5 -303q0 -248 -116 -393.5t-291 -145.5q-21 0 -57 4l-23 -84q-1 -5 -3.5 -13.5t-12.5 -30 t-23.5 -38t-39 -30t-56.5 -13.5t-47.5 16t-17.5 38.5t2.5 45t9.5 38.5l6 16l41 127q-88 67 -138.5 186t-50.5 277zM217 524q0 -163 80 -270l254 797q-50 47 -98 47q-56 0 -112 -96t-90 -230t-34 -248zM446 158l19 -2q94 0 167 97.5t73 260.5q0 222 -60 383z" />
<glyph unicode="&#xd9;" horiz-adv-x="813" d="M66 326l4 782q-1 3 -1.5 7t2 15t8.5 19t22 15t40 7q31 0 45.5 -21.5t14.5 -70.5l24 -764q0 -6 1 -15.5t11.5 -34.5t29 -44.5t58.5 -35t95 -15.5q45 0 80 14.5t53 35.5t29 41.5t14 34.5l2 15l10 781q0 45 17 62t53 17q27 0 42 -15.5t16 -31.5l1 -16q17 -719 17 -782 q0 -18 -1.5 -38t-9.5 -53.5t-21.5 -63t-39.5 -62t-61 -55.5t-89.5 -38.5t-121.5 -15.5t-121.5 15.5t-89.5 38.5t-61 55.5t-39.5 62t-21.5 63t-9.5 53.5t-1.5 38zM214.5 1444.5q9.5 19.5 37.5 25.5q29 5 143 -25.5t117 -45.5q4 -25 -14 -59.5t-56 -34.5q-25 0 -81.5 24.5 t-100.5 48.5l-43 25q-12 22 -2.5 41.5z" />
<glyph unicode="&#xda;" horiz-adv-x="813" d="M66 326l4 782q-1 3 -1.5 7t2 15t8.5 19t22 15t40 7q31 0 45.5 -21.5t14.5 -70.5l24 -764q0 -6 1 -15.5t11.5 -34.5t29 -44.5t58.5 -35t95 -15.5q45 0 80 14.5t53 35.5t29 41.5t14 34.5l2 15l10 781q0 45 17 62t53 17q27 0 42 -15.5t16 -31.5l1 -16q17 -719 17 -782 q0 -18 -1.5 -38t-9.5 -53.5t-21.5 -63t-39.5 -62t-61 -55.5t-89.5 -38.5t-121.5 -15.5t-121.5 15.5t-89.5 38.5t-61 55.5t-39.5 62t-21.5 63t-9.5 53.5t-1.5 38zM259.5 1330.5q-8.5 19.5 2.5 41.5q168 98 225 98q38 0 56 -34.5t14 -59.5q-4 -15 -118 -45.5t-144 -25.5 q-27 6 -35.5 25.5z" />
<glyph unicode="&#xdb;" horiz-adv-x="813" d="M66 326l4 782q-1 3 -1.5 7t2 15t8.5 19t22 15t40 7q31 0 45.5 -21.5t14.5 -70.5l24 -764q0 -6 1 -15.5t11.5 -34.5t29 -44.5t58.5 -35t95 -15.5q45 0 80 14.5t53 35.5t29 41.5t14 34.5l2 15l10 781q0 45 17 62t53 17q27 0 42 -15.5t16 -31.5l1 -16q17 -719 17 -782 q0 -18 -1.5 -38t-9.5 -53.5t-21.5 -63t-39.5 -62t-61 -55.5t-89.5 -38.5t-121.5 -15.5t-121.5 15.5t-89.5 38.5t-61 55.5t-39.5 62t-21.5 63t-9.5 53.5t-1.5 38zM196.5 1331q-7.5 18 2.5 37q16 17 42 43t79.5 69.5t76.5 43.5q1 0 2 -1t2 -1q0 2 2 2q23 0 72.5 -39t88.5 -78 l38 -39q10 -19 2 -37t-33 -22q-16 -3 -68.5 23.5t-101.5 58.5q-52 -33 -104 -59t-68 -23q-25 4 -32.5 22z" />
<glyph unicode="&#xdc;" horiz-adv-x="813" d="M66 326l4 782q-1 3 -1.5 7t2 15t8.5 19t22 15t40 7q31 0 45.5 -21.5t14.5 -70.5l24 -764q0 -6 1 -15.5t11.5 -34.5t29 -44.5t58.5 -35t95 -15.5q45 0 80 14.5t53 35.5t29 41.5t14 34.5l2 15l10 781q0 45 17 62t53 17q27 0 42 -15.5t16 -31.5l1 -16q17 -719 17 -782 q0 -18 -1.5 -38t-9.5 -53.5t-21.5 -63t-39.5 -62t-61 -55.5t-89.5 -38.5t-121.5 -15.5t-121.5 15.5t-89.5 38.5t-61 55.5t-39.5 62t-21.5 63t-9.5 53.5t-1.5 38zM221 1360q-4 21 13 52.5t51 31.5q23 0 39 -15.5t21 -30.5l5 -16q12 -19 4.5 -37t-32.5 -22t-60.5 9.5 t-40.5 27.5zM461 1372v27t13.5 30.5t37.5 14.5q23 0 39.5 -15.5t21.5 -30.5l5 -16q11 -19 3 -37t-32 -22q-25 -4 -55 14.5t-33 34.5z" />
<glyph unicode="&#xdd;" horiz-adv-x="841" d="M61 1149q0 23 23.5 35t56.5 12q10 0 17 -1t11.5 -4t6.5 -5t6 -8l6 -9q20 -23 238 -387q202 362 227 394q2 3 5.5 8.5t5.5 7.5t6.5 5t11 4t16.5 1q35 0 58.5 -11t23.5 -34q1 -11 -14.5 -44t-47.5 -88l-64 -110t-81 -137.5t-84 -142.5q2 -70 8.5 -215.5t11.5 -257.5t5 -129 q0 -23 -30 -30t-59.5 5.5t-29.5 36.5q0 18 -9 133t-20 257.5t-14 207.5q-33 55 -84 138t-81.5 134t-62.5 105.5t-47.5 86t-15.5 42.5zM333.5 1333q8.5 -20 35.5 -24q30 -6 144 24t118 47q4 22 -14.5 57.5t-55.5 35.5q-25 0 -81.5 -24.5t-99.5 -48.5l-44 -24 q-11 -23 -2.5 -43z" />
<glyph unicode="&#xde;" horiz-adv-x="661" d="M60 1116.5q0 11.5 2 41t8 52.5t21.5 41.5t39.5 18.5q38 0 56 -24t17 -48l-1 -24l-4 -209q52 -2 98.5 -10.5t100.5 -32.5t92.5 -60t64 -99t25.5 -145q0 -78 -15 -138t-38.5 -97.5t-58 -61.5t-68 -34t-74 -12t-70.5 1.5t-63 10.5v-189q0 -4 0.5 -10.5t-1 -23.5t-5 -30 t-12 -23.5t-21.5 -10.5q-19 0 -32.5 21t-17.5 42l-4 21l-39 1014q-1 7 -1 18.5zM195 408q36 -12 71 -18.5t78 -1t74.5 27t53.5 73t22 129.5q0 218 -299 242v-452z" />
<glyph unicode="&#xdf;" horiz-adv-x="903" d="M50.5 1034.5q-0.5 23.5 3 61t10.5 68t22.5 64.5t38 57.5t58.5 38.5t81 15h39q31 2 62.5 0.5t62 -3.5t59 -11.5t54 -22.5t46.5 -38t36 -57.5t23.5 -80t8.5 -106.5q0 -162 -125 -252q271 -71 271 -377q0 -46 -12 -89.5t-32 -77.5t-46.5 -64t-56.5 -52t-60 -40t-58.5 -28.5 t-51.5 -16.5t-39 -6t-21 6q-58 54 -2 110q10 11 40.5 30.5t61.5 42t62 51t51 67.5t20 82q0 57 -18.5 102.5t-46.5 71t-62.5 45.5t-64 29t-54 17.5t-30.5 14.5q-23 23 -27.5 58.5t17.5 60.5q7 7 37 25.5t54.5 37t46 57t21.5 85.5q0 72 -14 116t-47 66t-71 28.5t-103 6.5 q-58 0 -70.5 -129.5t2.5 -253.5q1 -29 2 -43l28 -375q24 -376 3 -397q-16 -16 -38.5 -23t-37.5 -6h-14q-53 15 -53 51q0 29 -32 449.5t-32 457.5q0 1 -1 27t-1.5 49.5z" />
<glyph unicode="&#xe0;" horiz-adv-x="739" d="M66 225q0 45 10 83.5t27 65t41 48t49 34.5t55 22t55 13t53 5.5t45 1.5t34 -1t18 -1q0 28 -2.5 60t-9.5 77.5t-25.5 74.5t-44.5 29q-24 0 -43 -7t-29.5 -17.5t-17.5 -23.5t-9 -26.5t-2.5 -24t0.5 -17.5v-7q-7 -2 -18.5 -4t-40.5 -3t-51.5 4.5t-41 24t-18.5 50.5 q0 87 98 130q95 41 212 18q124 -24 171 -105q24 -39 23 -88l12 -346q16 -139 41 -168q12 -11 -2.5 -38t-35.5 -48l-21 -21q-2 -2 -6.5 -5t-18 -7t-27 -2.5t-31.5 15.5t-34 40q-61 -42 -134 -55t-135 4t-104 73t-42 142zM174 953.5q-8 17.5 2 37.5q17 17 43 42.5t80 68.5 t78 43h2h2q23 0 72.5 -38.5t88.5 -76.5l38 -39q10 -20 2 -37.5t-33 -21.5q-16 -3 -68.5 23.5t-101.5 58.5q-52 -33 -104 -59t-68 -23q-25 4 -33 21.5zM229 240q0 -18 0.5 -28.5t6.5 -32t17.5 -34.5t36 -23.5t58.5 -10.5q38 0 67.5 11.5t39.5 22.5l10 11l-16 252 q-220 0 -220 -168z" />
<glyph unicode="&#xe1;" horiz-adv-x="739" d="M66 225q0 45 10 83.5t27 65t41 48t49 34.5t55 22t55 13t53 5.5t45 1.5t34 -1t18 -1q0 28 -2.5 60t-9.5 77.5t-25.5 74.5t-44.5 29q-24 0 -43 -7t-29.5 -17.5t-17.5 -23.5t-9 -26.5t-2.5 -24t0.5 -17.5v-7q-7 -2 -18.5 -4t-40.5 -3t-51.5 4.5t-41 24t-18.5 50.5 q0 87 98 130q95 41 212 18q124 -24 171 -105q24 -39 23 -88l12 -346q16 -139 41 -168q12 -11 -2.5 -38t-35.5 -48l-21 -21q-2 -2 -6.5 -5t-18 -7t-27 -2.5t-31.5 15.5t-34 40q-61 -42 -134 -55t-135 4t-104 73t-42 142zM228.5 962q8.5 -20 35.5 -26q30 -5 144 26t118 46 q4 25 -13.5 59.5t-55.5 34.5q-25 0 -81.5 -24.5t-100.5 -49.5l-44 -24q-11 -22 -2.5 -42zM229 240q0 -18 0.5 -28.5t6.5 -32t17.5 -34.5t36 -23.5t58.5 -10.5q38 0 67.5 11.5t39.5 22.5l10 11l-16 252q-220 0 -220 -168z" />
<glyph unicode="&#xe2;" horiz-adv-x="739" d="M66 225q0 45 10 83.5t27 65t41 48t49 34.5t55 22t55 13t53 5.5t45 1.5t34 -1t18 -1q0 28 -2.5 60t-9.5 77.5t-25.5 74.5t-44.5 29q-24 0 -43 -7t-29.5 -17.5t-17.5 -23.5t-9 -26.5t-2.5 -24t0.5 -17.5v-7q-7 -2 -18.5 -4t-40.5 -3t-51.5 4.5t-41 24t-18.5 50.5 q0 87 98 130q95 41 212 18q124 -24 171 -105q24 -39 23 -88l12 -346q16 -139 41 -168q12 -11 -2.5 -38t-35.5 -48l-21 -21q-2 -2 -6.5 -5t-18 -7t-27 -2.5t-31.5 15.5t-34 40q-61 -42 -134 -55t-135 4t-104 73t-42 142zM174 953.5q-8 17.5 2 37.5q17 17 43 42.5t80 68.5 t78 43h2h2q23 0 72.5 -38.5t88.5 -76.5l38 -39q10 -20 2 -37.5t-33 -21.5q-16 -3 -68.5 23.5t-101.5 58.5q-52 -33 -104 -59t-68 -23q-25 4 -33 21.5zM229 240q0 -18 0.5 -28.5t6.5 -32t17.5 -34.5t36 -23.5t58.5 -10.5q38 0 67.5 11.5t39.5 22.5l10 11l-16 252 q-220 0 -220 -168z" />
<glyph unicode="&#xe3;" horiz-adv-x="743" d="M70 225q0 45 10 83.5t27 65t41 48t49 34.5t55 22t55 13t53 5.5t45 1.5t34 -1t18 -1q0 28 -2.5 60t-9.5 77.5t-25.5 74.5t-44.5 29q-24 0 -43 -7t-29.5 -17.5t-17.5 -23.5t-9 -26.5t-2.5 -24t0.5 -17.5v-7q-7 -2 -18.5 -4t-40.5 -3t-51.5 4.5t-41 24t-18.5 50.5 q0 87 98 130q95 41 212 18q124 -24 171 -105q24 -39 23 -88l13 -346q16 -139 41 -168q12 -11 -3 -38t-36 -48l-21 -21q-2 -2 -6.5 -5t-18 -7t-27 -2.5t-31.5 15.5t-34 40q-61 -42 -134 -55t-135 4t-104 73t-42 142zM132 980q-4 -31 9 -40q23 -18 46.5 -17t37.5 17 q7 8 12.5 29.5t12.5 37t20 15.5q24 0 74 -33q80 -43 145 -43q38 0 61.5 26t28.5 59.5t2 64t-12 41.5q-15 20 -39 20t-43 -20q-9 -11 -15.5 -31.5t-13 -33.5t-18.5 -13q-17 0 -73 31q-26 15 -40 22t-40.5 14t-57.5 7q-26 0 -49 -27t-33.5 -61t-14.5 -65zM233 240 q0 -18 0.5 -28.5t6.5 -32t17.5 -34.5t36 -23.5t58.5 -10.5q38 0 67.5 11.5t39.5 22.5l10 11l-16 252q-220 0 -220 -168z" />
<glyph unicode="&#xe4;" horiz-adv-x="739" d="M66 225q0 45 10 83.5t27 65t41 48t49 34.5t55 22t55 13t53 5.5t45 1.5t34 -1t18 -1q0 28 -2.5 60t-9.5 77.5t-25.5 74.5t-44.5 29q-24 0 -43 -7t-29.5 -17.5t-17.5 -23.5t-9 -26.5t-2.5 -24t0.5 -17.5v-7q-7 -2 -18.5 -4t-40.5 -3t-51.5 4.5t-41 24t-18.5 50.5 q0 87 98 130q95 41 212 18q123 -24 171 -105q23 -40 23 -88l12 -346q16 -143 41 -168q12 -11 -2.5 -38t-35.5 -48l-21 -21q-2 -2 -6.5 -5t-18 -7t-27 -2.5t-31.5 15.5t-34 40q-61 -42 -134 -55t-135 4t-104 73t-42 142zM178 971q-4 21 13 52.5t51 31.5q23 0 39.5 -15.5 t22.5 -31.5l5 -15q10 -19 2.5 -37t-32.5 -22t-60.5 9.5t-40.5 27.5zM229 240q0 -18 0.5 -28.5t6.5 -32t17.5 -34.5t36 -23.5t58.5 -10.5q38 0 67.5 11.5t39.5 22.5l10 11l-16 252q-220 0 -220 -168zM418 983v27t13.5 30.5t37.5 14.5q23 0 39.5 -15.5t21.5 -31.5l5 -15 q11 -19 3 -37t-32 -22q-25 -4 -55 14.5t-33 34.5z" />
<glyph unicode="&#xe5;" horiz-adv-x="739" d="M66 225q0 45 10 83.5t27 65t41 48t49 34.5t55 22t55 13t53 5.5t45 1.5t34 -1t18 -1q0 28 -2.5 60t-9.5 77.5t-25.5 74.5t-44.5 29q-24 0 -43 -7t-29.5 -17.5t-17.5 -23.5t-9 -26.5t-2.5 -24t0.5 -17.5v-7q-7 -2 -18.5 -4t-40.5 -3t-51.5 4.5t-41 24t-18.5 50.5 q0 87 98 130q95 41 212 18q124 -24 171 -105q24 -39 23 -88l12 -346q16 -139 41 -168q12 -11 -2.5 -38t-35.5 -48l-21 -21q-2 -2 -6.5 -5t-18 -7t-27 -2.5t-31.5 15.5t-34 40q-61 -42 -134 -55t-135 4t-104 73t-42 142zM223 1087q0 69 46 111.5t114 42.5t114 -42.5 t46 -111.5q0 -67 -46 -106t-114 -39t-114 39t-46 106zM229 240q0 -18 0.5 -28.5t6.5 -32t17.5 -34.5t36 -23.5t58.5 -10.5q38 0 67.5 11.5t39.5 22.5l10 11l-16 252q-220 0 -220 -168zM313 1085q0 -29 22.5 -54t47.5 -25t46.5 24t21.5 53q0 44 -22 69.5t-50 25.5 q-24 0 -45 -32t-21 -61z" />
<glyph unicode="&#xe6;" horiz-adv-x="1177" d="M92 223q0 46 10.5 84.5t28.5 65.5t43 48.5t51.5 34.5t58 22t58 13t55.5 6t47 1.5t35.5 -1.5t18.5 -1q0 112 -32.5 172.5t-78.5 60.5q-43 0 -72.5 -15.5t-41.5 -37.5t-18 -44.5t-5 -37.5v-16q-6 -2 -15 -4t-33 -3t-42.5 4t-33.5 23.5t-15 50.5q0 106 79 158t187 41h16 q57 0 109.5 -33.5t91.5 -93.5q39 61 91.5 95t111.5 34q299 0 299 -223q0 -57 -16.5 -101t-42 -70t-61 -43.5t-70.5 -23.5t-73 -8t-64.5 0.5t-50 5t-26.5 2.5q0 -116 33 -192t78 -76q43 0 72.5 15.5t41.5 38t18 44.5t5 37v16q6 2 15 4t33 3t42.5 -4t33.5 -23.5t15 -50.5 q0 -106 -79.5 -158t-186.5 -41h-16q-122 0 -203 127q-39 -61 -91 -95t-110 -34q-301 0 -301 223zM242 238q0 -19 0.5 -29t6.5 -32.5t17.5 -35.5t36 -24t59.5 -11q39 0 67.5 31t41 75.5t19.5 89t8 75.5v31q-146 0 -201 -36.5t-55 -133.5zM692 479q59 0 87 0.5t64 4.5t50.5 12 t30 23t20 37.5t4.5 55.5q0 17 -1 28.5t-7.5 32.5t-18 34t-36.5 23.5t-60 10.5q-38 0 -66 -27t-40.5 -65.5t-19 -77t-7.5 -65.5v-27z" />
<glyph unicode="&#xe7;" horiz-adv-x="659" d="M70 426q0 175 82.5 299.5t199.5 124.5q71 0 132 -53t61 -97q0 -20 -31 -49.5t-49 -29.5q-7 0 -16 17.5t-18 38.5t-30.5 38.5t-50.5 17.5q-54 0 -92.5 -85.5t-38.5 -205.5q0 -119 41.5 -207t95.5 -88q33 0 56 10.5t33.5 25.5t17.5 30.5t12.5 26t13.5 10.5q27 0 62 -17.5 t35 -42.5q0 -29 -45 -85.5t-107 -84.5q3 -62 -20 -102q-23 -39 -47.5 -60t-44 -24t-36.5 2.5t-26.5 15.5t-11.5 19q-3 13 -2.5 21t3.5 11l3 3q2 0 5.5 1.5t11.5 8t14.5 17t11.5 31t4 46.5q-99 28 -164 145t-65 271z" />
<glyph unicode="&#xe8;" horiz-adv-x="722" d="M55 426q0 175 83 299.5t200 124.5q299 0 299 -223q0 -46 -10.5 -84.5t-28 -66t-43 -49t-51.5 -34.5t-57.5 -22.5t-58 -13.5t-55.5 -5.5t-47 -1.5t-36 1t-19 1q0 -111 32.5 -171t80.5 -60q43 0 72.5 15.5t41.5 38t18 44.5t6 37l-1 16q6 2 15.5 4t33.5 3t42.5 -4 t33.5 -23.5t15 -50.5q0 -106 -80 -158t-187 -41h-16q-117 0 -200 123.5t-83 300.5zM191 1122q8 21 36 25q29 6 143 -25.5t117 -46.5q6 -24 -11.5 -59t-55.5 -35q-25 0 -81.5 24.5t-100.5 48.5l-43 25q-12 22 -4 43zM231 442q147 0 202.5 36t55.5 134q0 17 -0.5 28t-7 32.5 t-18 34.5t-36.5 23.5t-60 10.5q-38 0 -66.5 -31t-41 -74.5t-20 -87.5t-7.5 -75z" />
<glyph unicode="&#xe9;" horiz-adv-x="722" d="M55 426q0 175 83 299.5t200 124.5q299 0 299 -223q0 -46 -10.5 -84.5t-28 -66t-43 -49t-51.5 -34.5t-57.5 -22.5t-58 -13.5t-55.5 -5.5t-47 -1.5t-36 1t-19 1q0 -111 32.5 -171t80.5 -60q43 0 72.5 15.5t41.5 38t18 44.5t6 37l-1 16q6 2 15.5 4t33.5 3t42.5 -4 t33.5 -23.5t15 -50.5q0 -106 -80 -158t-187 -41h-16q-117 0 -200 123.5t-83 300.5zM231 442q147 0 202.5 36t55.5 134q0 17 -0.5 28t-7 32.5t-18 34.5t-36.5 23.5t-60 10.5q-38 0 -66.5 -31t-41 -74.5t-20 -87.5t-7.5 -75zM243.5 994.5q9.5 -19.5 37.5 -25.5q29 -5 143 25.5 t117 45.5q4 25 -14 60t-56 35q-25 0 -81.5 -24.5t-99.5 -49.5l-44 -25q-12 -22 -2.5 -41.5z" />
<glyph unicode="&#xea;" horiz-adv-x="722" d="M55 426q0 175 83 299.5t200 124.5q299 0 299 -223q0 -46 -10.5 -84.5t-28 -66t-43 -49t-51.5 -34.5t-57.5 -22.5t-58 -13.5t-55.5 -5.5t-47 -1.5t-36 1t-19 1q0 -111 32.5 -171t80.5 -60q43 0 72.5 15.5t41.5 38t18 44.5t6 37l-1 16q6 2 15.5 4t33.5 3t42.5 -4 t33.5 -23.5t15 -50.5q0 -106 -80 -158t-187 -41h-16q-117 0 -200 123.5t-83 300.5zM188.5 974q-7.5 18 4.5 38q16 17 41.5 42.5t79 68t77.5 42.5h2h2q23 0 72.5 -38.5t88.5 -76.5l38 -38q10 -20 2 -38t-33 -22q-14 -3 -68.5 24t-101.5 58q-52 -33 -104 -59t-68 -23 q-25 4 -32.5 22zM231 442q147 0 202.5 36t55.5 134q0 17 -0.5 28t-7 32.5t-18 34.5t-36.5 23.5t-60 10.5q-38 0 -66.5 -31t-41 -74.5t-20 -87.5t-7.5 -75z" />
<glyph unicode="&#xeb;" horiz-adv-x="722" d="M55 426q0 175 83 299.5t200 124.5q299 0 299 -223q0 -46 -10.5 -84.5t-28 -66t-43 -49t-51.5 -34.5t-57.5 -22.5t-58 -13.5t-55.5 -5.5t-47 -1.5t-36 1t-19 1q0 -111 32.5 -171t80.5 -60q43 0 72.5 15.5t41.5 38t18 44.5t6 37l-1 16q6 2 15.5 4t33.5 3t42.5 -4 t33.5 -23.5t15 -50.5q0 -106 -80 -158t-187 -41h-16q-117 0 -200 123.5t-83 300.5zM143 1013q-4 -31 9 -40q24 -18 47 -17t37 17q7 8 12.5 29.5t12.5 37t20 15.5q23 0 73 -33q80 -43 146 -43q38 0 61.5 26t28.5 59t2 63.5t-12 41.5q-15 20 -39 20t-41 -20q-10 -11 -17 -31 t-13.5 -33t-18.5 -13q-20 0 -74 30q-26 15 -39.5 22t-39.5 14t-56 7q-27 0 -50.5 -27t-34 -60.5t-14.5 -64.5zM231 442q147 0 202.5 36t55.5 134q0 17 -0.5 28t-7 32.5t-18 34.5t-36.5 23.5t-60 10.5q-38 0 -66.5 -31t-41 -74.5t-20 -87.5t-7.5 -75z" />
<glyph unicode="&#xec;" horiz-adv-x="456" d="M73 1132.5q9 20.5 36 24.5q30 6 144 -24.5t118 -47.5q4 -22 -14.5 -57t-55.5 -35q-25 0 -81.5 24.5t-99.5 48.5l-44 24q-12 22 -3 42.5zM197 797q2 33 49 46t93 -0.5t44 -45.5q-2 -40 -4.5 -387t-3.5 -367q-1 -17 -17.5 -28.5t-38.5 -13.5t-44 2t-36.5 16.5t-13.5 29.5 q1 27 -14.5 368t-13.5 380z" />
<glyph unicode="&#xed;" horiz-adv-x="460" d="M70 797q2 33 49 46t93 -0.5t44 -45.5q-2 -40 -4.5 -387t-3.5 -367q-1 -17 -17.5 -28.5t-38.5 -13.5t-44 2t-36.5 16.5t-13.5 29.5q1 27 -14.5 368t-13.5 380zM89.5 1033.5q8.5 -19.5 35.5 -23.5q30 -6 144 24t118 47q4 22 -14.5 57.5t-55.5 35.5q-25 0 -81.5 -25 t-99.5 -49l-44 -25q-11 -22 -2.5 -41.5z" />
<glyph unicode="&#xee;" horiz-adv-x="557" d="M72.5 1022q-7.5 19 3.5 39q16 17 42 42.5t80 68t78 42.5h3q23 0 72.5 -38t87.5 -76l38 -39q11 -20 3.5 -39t-31.5 -23q-16 -3 -69 23t-104 59q-52 -33 -104 -59t-68 -23q-24 4 -31.5 23zM188 797q2 33 49.5 46t93.5 -0.5t44 -45.5q-1 -23 -3.5 -371.5t-4.5 -382.5 q-1 -17 -17.5 -28.5t-38.5 -13.5t-44 2t-36.5 16.5t-13.5 29.5q2 30 -14.5 370.5t-14.5 377.5z" />
<glyph unicode="&#xef;" horiz-adv-x="505" d="M70 1063q-4 20 12.5 52t50.5 32q23 0 39.5 -15.5t21.5 -31.5l5 -15q11 -20 3 -37.5t-32 -21.5q-26 -6 -61.5 8t-38.5 29zM164 797q2 33 49 46t93 -0.5t44 -45.5q-2 -35 -5 -379.5t-5 -374.5q-1 -17 -16.5 -28.5t-38 -13.5t-44 2t-37 16.5t-14.5 29.5q2 30 -13 370.5 t-13 377.5zM309 1073q-6 22 5 48t46 26q23 0 39.5 -15.5t21.5 -31.5l5 -15q10 -20 2 -37.5t-33 -21.5q-23 -6 -53 13t-33 34z" />
<glyph unicode="&#xf0;" d="M51 416q0 98 39 192.5t107 170t171.5 121.5t223.5 46q223 0 381 -158q-55 182 -262 377l-207 -104q-2 -1 -4.5 -2.5t-10 -4.5t-13.5 -4.5t-13 0t-10 7.5q-11 21 -3 39t24 30l15 11l146 94q-25 22 -49.5 41t-36.5 27l-12 8q-4 3 -10.5 9t-21.5 22.5t-23.5 31.5t-9 34.5 t14.5 33.5q14 15 35.5 18t42 -3t39 -14.5t30.5 -16.5l11 -7q51 -35 123 -96l137 90q28 16 49 16q29 4 47 -14q22 -24 18.5 -42.5t-32.5 -47.5q-20 -20 -137 -82q315 -315 315 -606q0 -83 -7.5 -152.5t-18.5 -110.5t-22.5 -69.5t-18.5 -39.5l-8 -11q-68 -115 -210.5 -182.5 t-287.5 -67.5q-72 0 -147.5 17.5t-146 53.5t-125.5 85t-88.5 116.5t-33.5 143.5zM229 428q0 -70 32 -123.5t86.5 -84t119 -45.5t137.5 -15t136.5 15t117 45.5t84.5 84t31 123.5q0 101 -38.5 183.5t-124 136t-206.5 53.5q-94 0 -167 -30.5t-117.5 -83t-67.5 -118.5t-23 -141z " />
<glyph unicode="&#xf1;" horiz-adv-x="694" d="M70 774q1 34 42 49t81.5 2.5t39.5 -45.5q0 -18 3 -67q69 131 184 131h18t41 -5.5t54 -16.5t48 -36t33 -61q7 -21 7 -41l-19 -637q0 -5 -2 -13t-14.5 -21t-32.5 -13q-42 0 -58 21t-16 61l-10 438q0 56 -8 92.5t-23.5 51.5t-27.5 19.5t-29 4.5q-96 0 -139 -115 q24 -497 24 -534q-1 -29 -38.5 -36.5t-75 8.5t-37.5 46q1 31 -22.5 355t-22.5 362zM138 1050.5q-4 -31.5 9 -40.5q23 -18 45.5 -17t38.5 17q7 8 12.5 29.5t12.5 37t20 15.5q24 0 74 -33q80 -43 146 -43q37 0 59.5 25.5t27.5 59.5t2.5 64t-10.5 41q-15 20 -38.5 20t-42.5 -20 q-9 -10 -16 -31t-14 -34t-20 -13q-6 0 -12 1.5t-14.5 6t-13 7t-16 9.5t-15.5 9q-28 15 -41 21.5t-39 13t-57 6.5q-26 0 -49 -26.5t-34 -60t-15 -65z" />
<glyph unicode="&#xf2;" horiz-adv-x="700" d="M70 373q0 116 37.5 225.5t103.5 179.5t141 70t141 -70t103 -179.5t37 -225.5q0 -172 -80 -272.5t-201 -100.5t-201.5 100.5t-80.5 272.5zM155.5 1096.5q9.5 19.5 37.5 25.5q29 5 143 -25.5t117 -45.5q4 -25 -14 -60t-56 -35q-25 0 -81.5 25t-99.5 49l-44 25 q-12 22 -2.5 41.5zM211 375q0 -94 44 -152.5t99 -58.5q53 0 94 56t41 149q0 155 -44 245.5t-99 90.5q-32 0 -64.5 -55t-51.5 -132t-19 -143z" />
<glyph unicode="&#xf3;" horiz-adv-x="700" d="M70 373q0 116 37.5 225.5t103.5 179.5t141 70t141 -70t103 -179.5t37 -225.5q0 -172 -80 -272.5t-201 -100.5t-201.5 100.5t-80.5 272.5zM211 375q0 -94 44 -152.5t99 -58.5q53 0 94 56t41 149q0 155 -44 245.5t-99 90.5q-32 0 -64.5 -55t-51.5 -132t-19 -143z M233.5 994.5q8.5 -19.5 36.5 -25.5q30 -5 143.5 25.5t116.5 45.5q6 23 -12.5 59t-56.5 36q-25 0 -81 -24.5t-99 -49.5l-43 -25q-13 -22 -4.5 -41.5z" />
<glyph unicode="&#xf4;" horiz-adv-x="700" d="M70 373q0 116 37.5 225.5t103.5 179.5t141 70t141 -70t103 -179.5t37 -225.5q0 -172 -80 -272.5t-201 -100.5t-201.5 100.5t-80.5 272.5zM141 953.5q-8 17.5 2 37.5q17 17 43 42.5t80 68.5t78 43h2q24 0 73.5 -38.5t87.5 -76.5l38 -39q11 -20 3.5 -37.5t-32.5 -23.5 q-16 -3 -67 23.5t-105 60.5q-49 -32 -102.5 -59.5t-67.5 -24.5q-25 6 -33 23.5zM211 375q0 -94 44 -152.5t99 -58.5q53 0 94 56t41 149q0 155 -44 245.5t-99 90.5q-32 0 -64.5 -55t-51.5 -132t-19 -143z" />
<glyph unicode="&#xf5;" horiz-adv-x="700" d="M70 373q0 116 37.5 225.5t103.5 179.5t141 70t141 -70t103 -179.5t37 -225.5q0 -172 -80 -272.5t-201 -100.5t-201.5 100.5t-80.5 272.5zM128 1011.5q-4 -31.5 9 -40.5q22 -17 45 -16.5t37 16.5q7 9 13 31t13 37.5t19 15.5q26 0 76 -33q75 -43 143 -43q38 0 61.5 25.5 t28.5 59.5t2.5 64t-10.5 41q-18 19 -41 19.5t-41 -19.5q-10 -11 -16.5 -31t-13 -33t-19.5 -13q-21 0 -72 30q-28 16 -41 22.5t-40 13.5t-56 7q-26 0 -49 -27t-33.5 -61t-14.5 -65.5zM211 375q0 -94 44 -152.5t99 -58.5q53 0 94 56t41 149q0 155 -44 245.5t-99 90.5 q-32 0 -64.5 -55t-51.5 -132t-19 -143z" />
<glyph unicode="&#xf6;" horiz-adv-x="700" d="M70 373q0 116 37.5 225.5t103.5 179.5t141 70t141 -70t103 -179.5t37 -225.5q0 -172 -80 -272.5t-201 -100.5t-201.5 100.5t-80.5 272.5zM162 1004q-4 22 12 52.5t51 30.5q23 0 39.5 -15.5t21.5 -30.5l5 -15q10 -19 2 -37t-33 -22q-24 -4 -59.5 9.5t-38.5 27.5zM211 375 q0 -94 44 -152.5t99 -58.5q53 0 94 56t41 149q0 155 -44 245.5t-99 90.5q-32 0 -64.5 -55t-51.5 -132t-19 -143zM399 1016q-5 21 7 46t45 25q23 0 39.5 -15.5t21.5 -30.5l6 -15q10 -19 2 -37t-33 -22t-55 14.5t-33 34.5z" />
<glyph unicode="&#xf7;" horiz-adv-x="585" d="M78 506q6 -25 55 -31q6 -3 14 0h275q4 0 9.5 -0.5t21 -0.5t27 2t21 8t9.5 16q0 11 -18.5 18.5t-37.5 9.5l-18 2q-30 4 -75 9t-129 11.5t-103 2.5q-36 -7 -46.5 -14.5t-4.5 -32.5zM238 651q0 -22 15.5 -37.5t37.5 -15.5q23 0 38 15.5t15 37.5q0 23 -15 38.5t-38 15.5 q-22 0 -37.5 -15.5t-15.5 -38.5zM240 373q0 -21 15 -36t36 -15q22 0 36.5 14.5t14.5 36.5t-14.5 36.5t-36.5 14.5q-21 0 -36 -15t-15 -36z" />
<glyph unicode="&#xf8;" horiz-adv-x="700" d="M52 -279.5q-1 22.5 2.5 45t9.5 38.5l6 16l86 274q-86 102 -86 279q0 116 37.5 225.5t103.5 179.5t141 70q23 0 41 -6l84 262q1 5 3 13t9.5 28.5t16 36t23 28.5t30.5 13q26 0 36 -35t7 -70l-4 -35l-88 -325q56 -70 89.5 -173.5t33.5 -211.5q0 -172 -80 -272.5t-201 -100.5 q-15 0 -43 4l-57 -213q-1 -5 -3.5 -13.5t-12.5 -30t-23.5 -38t-39 -30t-56.5 -13.5t-47.5 16t-17.5 38.5zM211 375q0 -40 10 -78l129 408h-4q-32 0 -64.5 -55t-51.5 -132t-19 -143zM352 164h2q53 0 94 56t41 149q0 122 -28 204z" />
<glyph unicode="&#xf9;" horiz-adv-x="643" d="M63 236l3 569q0 2 -0.5 5t1.5 10.5t7 13.5t16.5 11t28.5 5q46 0 64 -15t18 -51l18 -555q0 -3 0.5 -8.5t5 -20t14 -25t30.5 -19.5t50 -9q30 0 51 7t30 17.5t13.5 21t4.5 17.5v7l8 567q0 36 18.5 51t63.5 15q27 0 40.5 -11t13.5 -23l-1 -11l2 -569q0 -21 -2.5 -42.5 t-17 -58.5t-39 -64.5t-74.5 -48.5t-117 -22q-67 1 -117 22t-74.5 48.5t-39 64.5t-17 58.5t-2.5 42.5zM137.5 1143q8.5 20 36.5 26q30 5 143.5 -25.5t116.5 -45.5q6 -23 -12.5 -58.5t-56.5 -35.5q-25 0 -81 24.5t-100 49.5l-43 24q-12 21 -3.5 41z" />
<glyph unicode="&#xfa;" horiz-adv-x="643" d="M63 236l3 569q0 2 -0.5 5t1.5 10.5t7 13.5t16.5 11t28.5 5q46 0 64 -15t18 -51l18 -555q0 -3 0.5 -8.5t5 -20t14 -25t30.5 -19.5t50 -9q30 0 51 7t30 17.5t13.5 21t4.5 17.5v7l8 567q0 36 18.5 51t63.5 15q27 0 40.5 -11t13.5 -23l-1 -11l2 -569q0 -21 -2.5 -42.5 t-17 -58.5t-39 -64.5t-74.5 -48.5t-117 -22q-67 1 -117 22t-74.5 48.5t-39 64.5t-17 58.5t-2.5 42.5zM209.5 1017.5q-8.5 20.5 3.5 41.5q166 98 225 98q38 0 56 -35t12 -59q-3 -15 -116.5 -46t-143.5 -26q-28 6 -36.5 26.5z" />
<glyph unicode="&#xfb;" horiz-adv-x="643" d="M63 236l3 569q0 2 -0.5 5t1.5 10.5t7 13.5t16.5 11t28.5 5q46 0 64 -15t18 -51l18 -555q0 -3 0.5 -8.5t5 -20t14 -25t30.5 -19.5t50 -9q30 0 51 7t30 17.5t13.5 21t4.5 17.5v7l8 567q0 36 18.5 51t63.5 15q27 0 40.5 -11t13.5 -23l-1 -11l2 -569q0 -21 -2.5 -42.5 t-17 -58.5t-39 -64.5t-74.5 -48.5t-117 -22q-67 1 -117 22t-74.5 48.5t-39 64.5t-17 58.5t-2.5 42.5zM123 996.5q-8 17.5 2 37.5q17 17 43 42.5t79.5 68.5t76.5 43h2h4q23 0 72.5 -38.5t87.5 -77.5l38 -38q10 -20 2.5 -37.5t-32.5 -21.5q-31 -8 -172 82q-51 -34 -102.5 -60 t-67.5 -22q-25 4 -33 21.5z" />
<glyph unicode="&#xfc;" horiz-adv-x="643" d="M63 236l3 569q0 2 -0.5 5t1.5 10.5t7 13.5t16.5 11t28.5 5q46 0 64 -15t18 -51l18 -555q0 -3 0.5 -8.5t5 -20t14 -25t30.5 -19.5t50 -9q30 0 51 7t30 17.5t13.5 21t4.5 17.5v7l8 567q0 36 18.5 51t63.5 15q27 0 40.5 -11t13.5 -23l-1 -11l2 -569q0 -21 -2.5 -42.5 t-17 -58.5t-39 -64.5t-74.5 -48.5t-117 -22q-67 1 -117 22t-74.5 48.5t-39 64.5t-17 58.5t-2.5 42.5zM133 1030q-6 19 11 51.5t51 32.5q23 0 39.5 -15t21.5 -31l6 -15q10 -20 2 -38t-33 -22q-26 -6 -60.5 8t-37.5 29zM371 1040q-5 23 6.5 48.5t44.5 25.5q23 0 39 -15t21 -31 l5 -15q11 -20 3.5 -38t-31.5 -22q-24 -6 -54.5 12.5t-33.5 34.5z" />
<glyph unicode="&#xfd;" horiz-adv-x="741" d="M-70 -332.5q-7 32.5 5.5 56t29 42t31.5 28.5l16 9q3 -5 9.5 -12.5t24.5 -24t36 -25t42 -4.5t44 27q28 33 46.5 67.5t26.5 55t28 86.5t32 103q-7 28 -126 358t-128 369q-8 37 40 49q51 12 97 -11q29 -15 35 -40q4 -18 26.5 -103.5t55 -210t53.5 -208.5q20 72 56.5 204.5 t59 213t26.5 100.5q9 37 68 49q58 11 90 -14q19 -14 14 -37q-7 -31 -69 -214.5t-121 -352t-60 -169.5q-29 -94 -61 -173.5t-67.5 -146t-74 -110.5t-78.5 -65.5t-83 -12t-85 51.5q-32 32 -39 64.5zM281 975q8 -21 36 -25q30 -6 144.5 24.5t118.5 47.5q4 25 -14 59.5t-56 34.5 q-25 0 -81.5 -24.5t-100.5 -49.5l-43 -24q-12 -22 -4 -43z" />
<glyph unicode="&#xfe;" horiz-adv-x="931" d="M115.5 1175q-0.5 15 1.5 53.5t10 68t28.5 53.5t51.5 24t52 -13t28.5 -31t10.5 -36.5t1.5 -31.5t-2.5 -13v-274q66 -2 126 -13t129.5 -41.5t119 -77.5t83 -129t33.5 -188q0 -102 -19.5 -180.5t-50 -127t-75 -80t-87.5 -44.5t-95.5 -15t-91.5 3t-82 14v-246q-1 -1 0 -13 t-1.5 -31.5t-7 -37.5t-15.5 -31t-27 -13q-25 0 -42.5 26.5t-22.5 53.5l-5 26l-49 1321q-1 9 -1.5 24zM291 254q32 -11 63 -18t70.5 -9.5t73.5 3.5t67.5 26t57.5 52.5t38.5 87.5t14.5 128q0 146 -96 223.5t-289 94.5v-588z" />
<glyph unicode="&#xff;" horiz-adv-x="741" d="M-70 -325q-7 32 5.5 55.5t29 43t31.5 28.5l16 10q3 -5 9.5 -12.5t24.5 -24t36 -25t42 -4.5t44 27q27 32 46 66t27 55t28 87t32 103q-7 28 -126 358t-128 369q-8 37 40 48q50 12 97 -11q29 -15 35 -39q4 -19 26.5 -104.5t55 -210t53.5 -209.5q21 78 57 207t58.5 211 t26.5 102q9 37 68 49q58 11 90 -14q19 -14 14 -37q-7 -32 -69.5 -215.5t-120.5 -351t-60 -170.5q-29 -94 -60.5 -172.5t-67.5 -145.5t-74.5 -111t-78.5 -65.5t-83 -12t-85 51.5q-32 32 -39 64zM176 1077q-4 20 13 52t51 32q23 0 39 -15.5t21 -30.5l5 -15q11 -20 3.5 -38 t-32.5 -24q-26 -4 -60.5 10t-39.5 29zM415.5 1115.5q0.5 16.5 14 31t37.5 14.5q23 0 39 -15.5t21 -30.5l5 -15q10 -20 2.5 -38t-32.5 -24q-23 -4 -53 15t-33 34q-1 12 -0.5 28.5z" />
<glyph unicode="&#x152;" horiz-adv-x="1740" d="M55 539q0 168 54 326.5t149.5 260t204.5 101.5t204 -101.5t149 -260t54 -326.5q0 -248 -116 -393.5t-291 -145.5q-85 0 -159 37t-129.5 104.5t-87.5 170.5t-32 227zM219 524q0 -164 76.5 -266t171.5 -102q93 0 165.5 97.5t72.5 260.5q0 271 -77.5 427.5t-174.5 156.5 q-56 0 -111.5 -96t-89 -229.5t-33.5 -248.5zM987 1118q0 22 20.5 35t51.5 16q4 2 14 2q21 -1 243 4t255 3q28 -2 40 -40t2 -75t-36 -35q-79 4 -438 14q2 -45 6.5 -172.5t7.5 -199.5q85 -2 260 -11q24 -2 29.5 -31.5t-9 -58t-38.5 -26.5q-1 0 -236 -6l17 -390q129 -8 462 -24 q23 -2 28 -32t-9.5 -58.5t-38.5 -26.5q-45 2 -122 0.5t-197 -4t-158 -2.5q-29 -3 -54.5 9.5t-25.5 35.5q0 25 -37 534t-37 539z" />
<glyph unicode="&#x153;" horiz-adv-x="1425" d="M70 373q0 116 37.5 225.5t103.5 179.5t141 70t141 -70t103 -179.5t37 -225.5q0 -172 -80 -272.5t-201 -100.5t-201.5 100.5t-80.5 272.5zM211 375q0 -94 44 -152.5t99 -58.5q53 0 94 56t41 149q0 155 -44 245.5t-99 90.5q-32 0 -64.5 -55t-51.5 -132t-19 -143zM756 426 q0 175 82.5 299.5t199.5 124.5q60 0 110 -10t95 -33.5t70.5 -69t25.5 -110.5q0 -46 -10.5 -84.5t-28 -66t-43 -49t-52 -34.5t-58 -22.5t-57.5 -13.5t-55 -5.5t-46.5 -1.5t-35.5 1t-19 1q0 -111 32 -171t78 -60q43 0 72.5 15.5t42 38t18.5 44.5t5 37v16q6 2 15 4t33 3 t42.5 -4t33.5 -23.5t15 -50.5q0 -106 -79 -158t-187 -41h-17q-117 0 -199.5 123.5t-82.5 300.5zM934 442q146 0 201 36t55 134q0 18 -0.5 28.5t-7 32t-18 34.5t-37 23.5t-60.5 10.5q-38 0 -66 -31t-40.5 -74.5t-19 -87.5t-7.5 -75v-31z" />
<glyph unicode="&#x178;" horiz-adv-x="841" d="M61 1149q0 23 23.5 35t56.5 12q10 0 17 -1t11.5 -4t6.5 -5t6 -8l6 -9q20 -23 238 -387q202 362 227 394q2 3 5.5 8.5t5.5 7.5t6.5 5t11 4t16.5 1q35 0 58.5 -11t23.5 -34q1 -11 -14.5 -44t-47.5 -88l-64 -110t-81 -137.5t-84 -142.5q2 -70 8.5 -215.5t11.5 -257.5t5 -129 q0 -23 -30 -30t-59.5 5.5t-29.5 36.5q0 18 -9 133t-20 257.5t-14 207.5q-33 55 -84 138t-81.5 134t-62.5 105.5t-47.5 86t-15.5 42.5zM215 1382q-4 22 11.5 53t49.5 31q23 0 40 -15t22 -29l6 -15q10 -20 2 -38.5t-33 -22.5q-26 -4 -60.5 9t-37.5 27zM453 1395q-5 21 6.5 46 t44.5 25q23 0 39 -15t21 -29l5 -15q12 -20 4.5 -38.5t-32.5 -22.5t-55 14.5t-33 34.5z" />
<glyph unicode="&#x2c6;" d="M395 1375.5q-8 17.5 2 37.5q17 17 43 42.5t80 68.5t78 43h2h2q23 0 72.5 -38.5t87.5 -76.5l39 -39q10 -20 2 -37.5t-33 -21.5q-14 -3 -68.5 24t-101.5 58q-52 -33 -104 -59t-68 -23q-25 4 -33 21.5z" />
<glyph unicode="&#x2dc;" d="M403 1355q-4 -31 9 -40q22 -18 46 -18t38 18q7 8 12.5 29.5t12.5 37t20 15.5q23 0 73 -33q80 -43 146 -43q38 0 61 25.5t28 59.5t2 64t-11 41q-15 20 -39 20t-43 -20q-9 -11 -15.5 -31t-13 -33t-18.5 -13q-20 0 -74 30q-26 16 -39.5 22.5t-40 13.5t-57.5 7q-26 0 -49 -27 t-33.5 -60.5t-14.5 -64.5z" />
<glyph unicode="&#x2000;" horiz-adv-x="783" />
<glyph unicode="&#x2001;" horiz-adv-x="1567" />
<glyph unicode="&#x2002;" horiz-adv-x="783" />
<glyph unicode="&#x2003;" horiz-adv-x="1567" />
<glyph unicode="&#x2004;" horiz-adv-x="522" />
<glyph unicode="&#x2005;" horiz-adv-x="391" />
<glyph unicode="&#x2006;" horiz-adv-x="261" />
<glyph unicode="&#x2007;" horiz-adv-x="261" />
<glyph unicode="&#x2008;" horiz-adv-x="195" />
<glyph unicode="&#x2009;" horiz-adv-x="313" />
<glyph unicode="&#x200a;" horiz-adv-x="87" />
<glyph unicode="&#x2010;" horiz-adv-x="587" d="M70 514.5q0 -7.5 2 -18.5q2 -9 7.5 -16t11 -11t15.5 -7t15 -4t16.5 -3t12.5 -2h18l225 14q5 -1 13 -1.5t29 0t37 3t29 11t13 22.5q0 16 -25 26.5t-50 13.5l-25 3q-9 1 -22.5 3t-55.5 7t-72 7t-70 4t-51 -3q-18 -4 -23.5 -5.5t-17.5 -5t-15 -6.5t-9 -7.5t-7 -10.5 t-1 -13.5z" />
<glyph unicode="&#x2011;" horiz-adv-x="587" d="M70 514.5q0 -7.5 2 -18.5q2 -9 7.5 -16t11 -11t15.5 -7t15 -4t16.5 -3t12.5 -2h18l225 14q5 -1 13 -1.5t29 0t37 3t29 11t13 22.5q0 16 -25 26.5t-50 13.5l-25 3q-9 1 -22.5 3t-55.5 7t-72 7t-70 4t-51 -3q-18 -4 -23.5 -5.5t-17.5 -5t-15 -6.5t-9 -7.5t-7 -10.5 t-1 -13.5z" />
<glyph unicode="&#x2012;" horiz-adv-x="587" d="M70 514.5q0 -7.5 2 -18.5q2 -9 7.5 -16t11 -11t15.5 -7t15 -4t16.5 -3t12.5 -2h18l225 14q5 -1 13 -1.5t29 0t37 3t29 11t13 22.5q0 16 -25 26.5t-50 13.5l-25 3q-9 1 -22.5 3t-55.5 7t-72 7t-70 4t-51 -3q-18 -4 -23.5 -5.5t-17.5 -5t-15 -6.5t-9 -7.5t-7 -10.5 t-1 -13.5z" />
<glyph unicode="&#x2013;" horiz-adv-x="825" d="M76 483q2 -9 7.5 -16t11 -11t15.5 -7t15 -4t16.5 -3t12.5 -2q6 -2 18 -2l463 15q5 -1 13 -1.5t29 0t37 3.5t29 11.5t13 22.5q0 15 -25 25t-51 13l-25 3q-18 1 -47 3t-115 7t-142 7.5t-128.5 4.5t-75.5 -3q-50 -10 -64 -21t-7 -45z" />
<glyph unicode="&#x2014;" horiz-adv-x="997" d="M51 520q0 -11 11.5 -26.5t22.5 -25.5l11 -9q16 -23 353.5 -22t392.5 12q40 8 53.5 22t7.5 45q-5 22 -31 39q-26 13 -51 10h-696h-8t-18 -2.5t-22.5 -6.5t-17.5 -13.5t-8 -22.5z" />
<glyph unicode="&#x2018;" horiz-adv-x="335" d="M70 1102q0 20 55.5 100.5t79.5 104.5q17 17 24.5 20.5t22.5 3.5q9 0 10.5 -10.5t-1.5 -20.5l-3 -10q-80 -262 -117 -262q-26 0 -48.5 26t-22.5 48z" />
<glyph unicode="&#x2019;" horiz-adv-x="358" d="M76.5 1045.5q0.5 -8.5 7.5 -21.5q6 -7 14.5 -3.5t16.5 11.5l8 8l82 96q96 118 84 138q-12 23 -48.5 29t-52.5 -5q-17 -9 -57.5 -99t-48.5 -122q-6 -23 -5.5 -31.5z" />
<glyph unicode="&#x201a;" horiz-adv-x="376" d="M93 18q2 -4 7 -12q6 -7 14.5 -3.5t16.5 11.5l8 9l80 93q97 120 84 140q-13 23 -47.5 29t-52.5 -6q-16 -9 -57 -99.5t-48 -120.5q-8 -33 -5 -41z" />
<glyph unicode="&#x201c;" horiz-adv-x="432" d="M68 1081q0 20 55.5 100.5t79.5 104.5q17 17 24.5 21t22.5 4q9 0 10.5 -10.5t-1.5 -21.5l-3 -11q-80 -260 -117 -260q-26 0 -48.5 25.5t-22.5 47.5zM221 1079q-1 14 37 79.5t53 82.5q13 14 18 18t17 5q7 0 8.5 -8t-0.5 -16l-2 -9q-44 -203 -73 -205q-20 -1 -39 18t-19 35z " />
<glyph unicode="&#x201d;" horiz-adv-x="462" d="M61 1084.5q1 -6.5 9 -15.5q5 -5 11.5 -1.5t11.5 10.5l5 7l62 89q55 86 45 100q-11 16 -38 18t-40 -8q-11 -8 -35.5 -79t-28.5 -95q-3 -19 -2 -25.5zM166.5 1047.5q0.5 -8.5 7.5 -21.5q6 -7 14.5 -3.5t16.5 11.5l8 8l80 93q98 121 86 143q-13 22 -48.5 28t-51.5 -6 q-17 -9 -58 -99.5t-49 -121.5q-6 -23 -5.5 -31.5z" />
<glyph unicode="&#x201e;" horiz-adv-x="462" d="M88 -324q-5 -28 6 -41q6 -6 12 -2.5t12 10.5l5 7l62 91q54 85 44 99q-11 16 -37.5 18t-39.5 -8q-11 -8 -35.5 -79t-28.5 -95zM191.5 -387q0.5 -8 7.5 -21q6 -7 14.5 -3.5t16.5 11.5l8 9l81 94q96 119 84 139q-13 23 -48.5 29t-51.5 -6q-17 -9 -57.5 -98.5t-48.5 -120.5 q-6 -25 -5.5 -33z" />
<glyph unicode="&#x2022;" horiz-adv-x="1214" d="M150 631q0 7 1 20t10.5 49.5t25 69.5t49 74t78.5 70t118.5 49t163.5 20q70 0 129.5 -9.5t101.5 -24.5t75.5 -38t54.5 -45.5t36 -51.5t21.5 -51.5t10 -50.5t3.5 -43.5t-1 -35.5t-1 -21q0 -65 -24.5 -119t-61 -86t-71.5 -53.5t-65 -34t-32 -14.5q-8 -7 12.5 -105.5 t16.5 -103.5q-8 -9 -40 -13t-40 3q-7 6 -7.5 62.5t-2.5 58.5q-4 4 -20 5.5t-23 -3.5q-4 -3 1.5 -85t0.5 -87q-27 -22 -41 -8q-6 7 -3.5 115t-0.5 110q-5 5 -20.5 6.5t-20.5 -4.5q-4 -4 0 -99t0 -100q-9 -7 -25 -10.5t-27 4.5q-6 5 -6 78t-4 76q-4 5 -15 3.5t-18 -7.5 q-4 -5 -8 -64t-8 -63q-5 -6 -41 0.5t-47 17.5q-8 8 17 107.5t18 105.5q-2 2 -24 8.5t-51.5 16t-64 32.5t-63 55t-48 88t-19.5 126zM268 608q0 -68 47 -101.5t88 -33.5q15 0 30.5 2t37.5 10t38 21.5t28 40.5t12 63t-14.5 62t-34.5 38.5t-40.5 19.5t-35.5 8l-14 1 q-142 0 -142 -131zM528 362q9 -9 94.5 -4t98.5 17q11 11 -44.5 76t-70.5 65q-13 0 -49.5 -72.5t-28.5 -81.5zM715 612q0 -15 2 -25t9 -26.5t27.5 -25.5t51.5 -9q25 0 43.5 8t26.5 19.5t12.5 23t4.5 19.5l1 8q0 4 -0.5 10t-4.5 21.5t-12 27.5t-25.5 21.5t-41.5 9.5 q-39 0 -62.5 -20.5t-27.5 -41.5z" />
<glyph unicode="&#x2026;" horiz-adv-x="798" d="M70 57q-6 29 16 72t68 43q31 0 53.5 -20.5t29.5 -41.5l7 -20q15 -26 4 -51t-45 -31q-33 -7 -80.5 11.5t-52.5 37.5zM305.5 143.5q11.5 26.5 46.5 32.5q38 7 89.5 -12t56.5 -41q6 -31 -18 -77t-74 -46q-34 0 -58 22t-32 44l-7 22q-15 29 -3.5 55.5zM571 63q-6 23 13 59 t57 36q26 0 45 -17t25 -34l6 -17q13 -23 4 -43.5t-37 -26.5q-29 -5 -69.5 10.5t-43.5 32.5z" />
<glyph unicode="&#x202f;" horiz-adv-x="313" />
<glyph unicode="&#x2039;" horiz-adv-x="669" d="M74 557q0 16 14 36t28 32l13 12l332 291q4 5 12 11t31 6.5t45 -21.5q22 -23 22.5 -46.5t-9.5 -35.5l-11 -13l-305 -286l325 -338q2 -2 6 -5t12 -13t11.5 -20t0 -23.5t-16.5 -26.5q-21 -21 -45 -23t-38 6l-14 9l-368 366q-45 43 -45 82z" />
<glyph unicode="&#x203a;" horiz-adv-x="669" d="M77.5 131q3.5 -14 16.5 -27q21 -21 45 -23.5t37 5.5l14 8l369 369q45 43 45 82q0 16 -14 36t-28 32l-13 12l-332 290q-4 5 -11.5 11t-30.5 6t-46 -23q-22 -22 -22 -45t11 -35l11 -12l303 -287l-326 -337q-2 -2 -6 -5t-11.5 -13t-11 -20t0 -24z" />
<glyph unicode="&#x205f;" horiz-adv-x="391" />
<glyph unicode="&#x20ac;" horiz-adv-x="1103" d="M20 459q0 22 18.5 33.5t37.5 12.5l18 1h68q0 61 4 90l-100 10q-46 2 -46 27q0 21 18.5 32.5t37.5 12.5l18 2h82q14 76 42 135t59 96.5t81.5 64t88.5 40t102 20t99.5 7.5t101.5 1h6q35 0 78 -3.5t91 -19t48 -40.5q0 -26 -7.5 -43.5t-21 -24.5t-25 -9.5t-26.5 -2.5 q-5 0 -37 2t-102 2h-27q-40 1 -62 0.5t-63 -4.5t-66.5 -12t-60 -24.5t-57 -40t-43.5 -60.5t-33 -84h250q27 0 51 -12q26 -17 31 -39q6 -30 -8 -44.5t-54 -23.5q-31 -5 -284 19q0 -9 -1 -27.5t-1 -28.5v-16h266q27 0 51 -12q26 -17 31 -39q6 -31 -8 -45.5t-54 -22.5 q-28 -7 -284 17q5 -61 20.5 -107.5t36 -75t51.5 -48t58.5 -27.5t66.5 -11t66.5 -1.5t66.5 3.5t60 2q70 0 102 3t37 3q16 0 27 -2t24.5 -9.5t21 -24.5t7.5 -43t-48.5 -41.5t-90.5 -19t-78 -3.5q-23 0 -70 -1q-51 1 -102 -0.5t-100.5 7t-94.5 22t-84 44.5t-68.5 75t-48.5 113 t-24 158l-98 12q-46 2 -46 25z" />
<glyph unicode="&#x2122;" horiz-adv-x="1777" d="M76.5 1138q9.5 34 36.5 33q28 -1 276 -1t273 -1q23 -1 29 -30.5t-8 -58t-38 -27.5q-52 0 -184 -6q4 -96 14.5 -353.5t18.5 -450t8 -210.5q0 -23 -30 -30t-59.5 5.5t-29.5 36.5q0 19 -13.5 210.5t-32 440t-24.5 344.5q-173 -8 -192 -6q-28 1 -41 35.5t-3.5 68.5zM807 37 q2 23 49.5 549t50.5 553q3 22 30 30t54 -1.5t31 -30.5q12 -19 242 -473q213 416 243 462q-2 15 8.5 26t27 15t34 3.5t30.5 -9t15 -22.5q3 -27 50 -552.5t50 -549.5q4 -27 -34 -35q-46 -9 -87 13q-26 15 -28 36q-10 69 -53 879q-206 -434 -226 -471q-12 -25 -28 -25 q-7 0 -15 6t-12 12l-4 7q-20 36 -225 469q-52 -858 -54 -875q-3 -33 -56 -47q-52 -13 -81 6q-14 9 -12 25z" />
<glyph unicode="&#x25fc;" horiz-adv-x="849" d="M0 0v850h850v-850h-850z" />
<glyph unicode="&#xfb03;" horiz-adv-x="1329" d="M66 602q0 55 18 55l84 11q-25 124 -25 153q0 54 29.5 100.5t76.5 75.5t106.5 49.5t119.5 23t115 -4.5q23 42 72 75t109 49.5t127 24.5t129.5 0t113.5 -24.5t81.5 -48.5t30.5 -72q0 -45 -17.5 -73t-42.5 -36.5t-50 -10.5t-43 1l-17 4q2 8 4 20t-3 44t-21 56.5t-59.5 44.5 t-110.5 20q-75 0 -112.5 -48.5t-37.5 -97.5q0 -93 11 -305l84 10q2 -1 12 1t21.5 -7t11.5 -28q0 -35 -23.5 -62t-83.5 -27h-16q24 -484 24 -536q0 -28 -35 -36.5t-70.5 6.5t-35.5 44q0 15 -43 522l-135 -2q-4 1 -8 5q-16 0 -51.5 -1.5t-55.5 -1.5h-16q24 -484 24 -536 q0 -28 -35 -36.5t-70.5 6.5t-35.5 44q0 15 -43 522h-80h-7.5t-12.5 6.5t-8 20.5zM317 827q0 -7 1 -11t2.5 -9.5t3.5 -36t4 -82.5l262 6l-17 207q-26 72 -106 72q-75 0 -112.5 -48.5t-37.5 -97.5zM1069 797q2 34 49 47t93 -1t44 -46q-1 -22 -3.5 -371t-4.5 -383 q-1 -17 -17 -28t-38.5 -13t-44 1.5t-36 16t-13.5 29.5q2 31 -14.5 371t-14.5 377z" />
<glyph unicode="&#xfb04;" horiz-adv-x="1296" d="M66 612q0 56 18 56l84 10q-25 124 -25 151q0 66 42.5 119t107 83t139.5 42.5t143 3.5q10 64 51.5 111t100 70.5t123 32t129.5 1.5q6 -1 16 -4t35 -12.5t44.5 -20.5t35.5 -29.5t16 -39.5q0 -38 -13 -59t-32 -23.5t-37.5 0.5t-31.5 10l-13 6q-4 2 -11.5 31.5t-29 54.5 t-63.5 25q-41 0 -70.5 -15.5t-44.5 -36t-23.5 -50t-10 -48t-1.5 -39.5q0 -62 11 -344l84 9q2 -1 12 0.5t21.5 -7t11.5 -26.5q0 -74 -78 -86q-10 -2 -31 -2h-14q24 -484 24 -537q0 -32 -45 -39q-34 -5 -66 10t-32 43q0 16 -43 523l-135 -2h-10q-16 0 -50.5 1t-54.5 1h-16 q24 -484 24 -537q0 -29 -35 -37.5t-70.5 7t-35.5 44.5q0 16 -43 523l-80 -2h-7.5t-12.5 7t-8 21zM317 838q0 -7 1 -11l2.5 -10t3.5 -37t4 -84l262 9l-17 206q-26 70 -106 70q-75 0 -112.5 -47t-37.5 -96zM963 948q0 34 43 52t86 8.5t43 -41.5q0 -23 6 -164t15 -341t13 -292 q1 -31 14 -61t25.5 -49t12.5 -23q0 -39 -43 -37q-51 4 -101 53q-49 49 -53 109q-6 90 -22 282t-27.5 335.5t-11.5 168.5z" />
</font>
</defs>
</svg>
